<svg width="281" height="47" viewBox="0 0 281 47" fill="none" xmlns="http://www.w3.org/2000/svg">
<path d="M118.224 31.5429L117.682 31.5148L116.627 31.4299L116.105 31.3829L115.095 31.2609L114.594 31.1949L113.627 31.0358L113.148 30.9517L112.224 30.7563L111.768 30.6533L110.888 30.4208L110.454 30.2996L109.618 30.03L109.207 29.8907L108.416 29.584L107.282 29.0836L107.089 28.9904L106.733 28.8115L106.56 28.7233L106.24 28.5485L106.084 28.4611L105.793 28.2872L105.651 28.1998L105.383 28.0217L105.119 27.842L104.632 27.4512L104.511 27.3498L104.273 27.1329L103.913 26.785L103.763 26.635L103.49 26.3365L103.357 26.1873L103.118 25.8872L103.002 25.7372L102.793 25.433L102.693 25.2796L102.514 24.9671L102.427 24.8089L102.275 24.4832L102.201 24.3183L102.074 23.9762L102.013 23.8022L101.908 23.4395L101.773 22.8673L101.751 22.7585L101.717 22.4905L101.702 22.3496L101.682 22.033L101.674 21.8697L101.666 21.5227L101.664 21.3471L101.67 20.9884L101.674 20.8103L101.691 20.46L101.701 20.2877L101.73 19.9645L101.745 19.8087L101.786 19.5316L101.858 19.1895L101.902 19.032L102.008 18.7204L102.063 18.5654L102.191 18.2595L102.257 18.107L102.406 17.8069L102.483 17.6577L102.653 17.3642L102.829 17.0715L103.241 16.5093L103.457 16.2322L103.947 15.703L104.201 15.4433L104.763 14.9511L105.053 14.7103L105.685 14.2602L106.009 14.0409L106.704 13.6377L107.816 13.0895L108.185 12.9271L108.942 12.6311L109.324 12.4877L110.113 12.2296L110.512 12.1043L111.336 11.8817L111.754 11.7745L112.62 11.5874L113.059 11.4975L113.972 11.3442L114.434 11.2716L115.399 11.1512L115.889 11.0944L116.91 11.0061L118.513 10.9072L119.141 10.8792L120.386 10.8635H121.006L122.229 10.9039L122.838 10.9311L124.032 11.0268L124.625 11.0812L125.783 11.2296L126.356 11.3112L127.47 11.5123L128.021 11.6195L129.082 11.8718L129.606 12.0045L130.607 12.3071L132.034 12.8166L132.297 12.9221L132.803 13.1398L133.051 13.2503L133.525 13.4795L133.758 13.5949L134.201 13.834L134.418 13.9552L134.83 14.205L135.032 14.3319L135.412 14.5924L135.598 14.7244L135.949 14.9956L136.119 15.1333L136.438 15.4152L136.881 15.8514L137.052 16.0311L137.359 16.3955L137.507 16.5785L137.77 16.9503L137.896 17.1383L138.116 17.5225L138.222 17.7171L138.401 18.1169L138.486 18.3197L138.627 18.7402L138.693 18.9537L138.796 19.3981L138.843 19.6232L138.91 20.0947L138.973 20.8384L138.987 21.1286L138.979 21.6809L138.969 21.953L138.912 22.4716L138.877 22.728L138.768 23.2185L138.707 23.4617L138.545 23.93L138.458 24.1617L138.24 24.6126L138.124 24.8361L137.849 25.2747L137.705 25.4923L137.37 25.9235L136.8 26.5674L136.598 26.7793L136.172 27.1783L135.956 27.3737L135.501 27.7422L135.269 27.9228L134.781 28.2616L134.533 28.4273L134.01 28.7389L133.743 28.8915L133.182 29.1775L132.896 29.3169L132.292 29.579L131.984 29.7068L131.336 29.9467L130.31 30.2831L130.105 30.3449L129.68 30.4628L129.465 30.5206L129.02 30.6302L128.571 30.7382L127.622 30.9278L127.14 31.0185L126.139 31.1735L125.633 31.2469L124.592 31.3656L124.068 31.42L123.004 31.5008L122.471 31.5363L121.399 31.5767L120.863 31.5923L119.798 31.5915L119.268 31.5866M121.893 26.4017L122.175 26.3703L122.7 26.2879L122.956 26.2434L123.432 26.1321L123.665 26.0735L124.096 25.9326L124.306 25.8584L124.696 25.6861L124.886 25.5954L125.238 25.3893L125.409 25.2821L125.727 25.0414L125.882 24.916L126.17 24.6382L126.572 24.1773L126.656 24.0702L126.807 23.8517L126.878 23.742L127.006 23.5186L127.068 23.4065L127.173 23.1757L127.224 23.0594L127.308 22.8195L127.347 22.6983L127.411 22.4477L127.441 22.3207L127.483 22.0577L127.502 21.9242L127.526 21.6455L127.54 21.2094V21.0313L127.52 20.6908L127.506 20.5234L127.456 20.2027L127.428 20.0453L127.35 19.7435L127.308 19.5951L127.2 19.3107L127.143 19.1705L127.006 18.9026L126.934 18.7699L126.766 18.5168L126.678 18.3923L126.48 18.1524L126.147 17.8077L125.985 17.6536L125.633 17.3774L125.454 17.2447L125.066 17.0089L124.868 16.8959L124.441 16.7005L124.223 16.6074L123.755 16.4507L123.516 16.3773L123.004 16.2586L122.743 16.2042L122.186 16.1234L121.9 16.0871L121.294 16.0435L120.327 16.0171H120.115L119.711 16.0261L119.511 16.0327L119.129 16.0533L118.94 16.0649L118.579 16.0979L118.401 16.116L118.059 16.1613L117.892 16.1853L117.571 16.2438L117.413 16.2743L117.112 16.3452L116.964 16.3823L116.681 16.4664L116.542 16.5101L116.276 16.6074L116.015 16.7088L115.543 16.9528L115.315 17.0814L114.904 17.3832L114.706 17.5415L114.351 17.9034L113.874 18.5159L113.799 18.6289L113.668 18.8457L113.604 18.9529L113.495 19.1648L113.392 19.3758L113.248 19.8029L113.217 19.9117L113.168 20.1376L113.146 20.2514L113.114 20.4921L113.101 20.6141L113.085 20.8738L113.078 21.2918V21.3916L113.081 21.5672L113.083 21.6513L113.089 21.7997L113.096 21.9423L113.122 22.1756L113.138 22.2877L113.188 22.4963L113.297 22.8385L113.367 23.0371L113.523 23.3875L113.605 23.5565L113.795 23.8665L113.895 24.0182L114.134 24.3093L114.564 24.7503L114.677 24.8559L114.931 25.0562L115.061 25.1543L115.346 25.3373L115.492 25.4272L115.806 25.5921L115.966 25.672L116.305 25.818L116.478 25.888L116.839 26.0117L117.022 26.0719L117.401 26.1733L117.594 26.2219L117.989 26.3003L118.595 26.3893L118.711 26.4025L118.965 26.4239L119.096 26.4338L119.375 26.4487L119.659 26.4627L120.259 26.4717L120.559 26.4726L121.136 26.4561L121.275 26.4503L121.537 26.4338L121.664 26.4248M4.19638 30.9418L3.93256 30.9385L3.45439 30.9336L3.22272 30.9303L2.80556 30.9254L2.60357 30.9221L2.24329 30.9171L2.06934 30.9138L1.761 30.9072L1.61342 30.9039L1.35372 30.8965L1.23006 30.8924L1.01488 30.8833L0.912651 30.8784L0.737871 30.8668L0.655427 30.861L0.516097 30.847L0.450967 30.8396L0.344615 30.8223L0.294324 30.8132L0.216002 30.7926L0.178903 30.7819L0.123665 30.7572L0.0989324 30.7448L0.062657 30.7151L0.0305041 30.6854L0.00741994 30.6088L0 30.4678V30.4538L0.00659564 30.4002L0.0115421 30.3689L0.0263819 30.2839L0.0346262 30.2378L0.056886 30.1265L0.0692527 30.0671L0.0981078 29.9327L0.127788 29.7942L0.203636 29.4653L0.333072 28.9319L0.480647 28.3416L0.802177 27.1478L0.967064 26.5501L1.32157 25.3447L1.50295 24.7413L1.88878 23.5302L2.085 22.925L2.49804 21.7139L2.70745 21.1096L3.14605 19.9043L3.36782 19.3041L3.82951 18.1111L4.062 17.5175L4.54347 16.3427L4.78668 15.7582L5.28464 14.6081L5.53609 14.0359L6.04972 12.9155L6.30776 12.359L6.83375 11.2749L7.0984 10.7374L7.63346 9.69447L7.90223 9.17837L8.4447 8.18327L8.71677 7.69191L9.26337 6.74958L9.53708 6.28624L10.0862 5.4041L10.3607 4.97044L10.9081 4.15343L11.7268 3.00829L11.8051 2.90358L11.9667 2.70242L12.0475 2.60431L12.1992 2.43283L12.2726 2.35286L12.3971 2.23002L12.4259 2.20364L12.4754 2.16241L12.5339 2.12202L12.5595 2.10965L12.6403 2.08739L12.6881 2.07667L12.8299 2.05936L12.8703 2.05524L12.9659 2.04782L13.017 2.04452L13.1349 2.03792L13.1976 2.03463L13.341 2.02968L13.4161 2.02638L13.5875 2.02226L13.6774 2.01979L13.8794 2.01649L13.9841 2.01402L14.2191 2.01154L14.3411 2.00989L14.6123 2.00742L14.7525 2.0066L15.0625 2.00412L15.2224 2.0033L15.5736 2.00247L15.7542 2.00165L16.1491 2.00082H16.3527L16.7938 2H17.511H17.7221H18.1219L18.3182 2.00082L18.6883 2.00165H18.8689L19.2102 2.0033H19.3767L19.6892 2.00495L19.8417 2.00577L20.1261 2.00824L20.2655 2.00907L20.5227 2.01237L20.648 2.01319L20.8797 2.01649L20.9918 2.01814L21.1971 2.02226L21.2968 2.02391L21.4766 2.02803L21.564 2.0305L21.7198 2.03463L21.7948 2.0371L21.9267 2.04287L21.9894 2.04534L22.099 2.05112L22.1501 2.05441L22.2367 2.06018L22.2779 2.06348L22.3422 2.0709L22.4585 2.09399L22.4733 2.10058L22.5145 2.13356L22.5376 2.15335L22.5962 2.21023L22.6267 2.24156L22.7 2.32235L22.7388 2.3644L22.8253 2.46498L22.9152 2.57051L23.1279 2.83598L23.2392 2.97531L23.4874 3.29766L23.6143 3.4642L23.8839 3.82695L24.0208 4.01245L24.3003 4.40076L25.1206 5.5863L25.3217 5.88804L25.7208 6.50884L25.9203 6.8213L26.3135 7.46272L26.7052 8.10825L27.4694 9.45291L27.847 10.1331L28.5774 11.5363L28.9377 12.2428L29.6278 13.6872L29.9666 14.4135L30.6089 15.8852L30.923 16.6222L31.51 18.1054L31.796 18.8465L32.3204 20.3256L33.0302 22.5235L33.1473 22.911L33.3847 23.7305L33.5035 24.1452L33.7384 24.9886L33.8547 25.4099L34.0764 26.2401L34.1844 26.6507L34.3848 27.4297L34.4326 27.6202L34.5233 27.9838L34.5678 28.1627L34.6494 28.5015L34.689 28.6664L34.7607 28.9747L34.7953 29.1248L34.8564 29.3985L34.8852 29.5296L34.933 29.7637L34.9561 29.875L34.9907 30.0646L35.0064 30.1537L35.0262 30.2938L35.0386 30.4447V30.4917L35.0262 30.5708L35.0171 30.6079L34.9841 30.6731L34.9644 30.7044L34.905 30.7613L34.7838 30.8479L34.7533 30.8668L34.684 30.8973L34.6445 30.9113L34.5307 30.9336L34.4977 30.9394L34.4169 30.9476L34.3741 30.9526L34.2694 30.9592L34.2141 30.9633L34.0806 30.9682L34.0105 30.9707L33.8448 30.9748L33.7574 30.9765L33.5537 30.9798L33.4466 30.9806L33.2009 30.9814L33.0723 30.9822H32.7796L32.6271 30.9814L32.2833 30.9806L32.1044 30.9798L31.7037 30.9773L31.4968 30.9765L31.0359 30.9732L30.7977 30.9707L30.2717 30.9666L29.4044 30.96L29.0515 30.9567L28.3722 30.9493L28.0374 30.946L27.4034 30.9369L27.0935 30.9328L26.5205 30.9229L26.2426 30.9188L25.7447 30.908L25.6251 30.9056L25.4034 30.9006L25.2954 30.8973L25.0975 30.8924L25.001 30.8899L24.8287 30.8841L24.7455 30.8817L24.6004 30.8759L24.5311 30.8734L24.414 30.8685L24.3596 30.866L24.2747 30.8602L24.236 30.8577L24.1832 30.8528L24.142 30.8454L24.1214 30.8347L24.0793 30.7926L24.0579 30.7687L24.0158 30.6986L23.9944 30.6607L23.9507 30.561L23.9284 30.5082L23.8839 30.3771L23.8608 30.3078L23.8139 30.1438L23.7899 30.0572L23.7397 29.8585L23.7141 29.7547L23.6613 29.5197L23.5772 29.124L23.5525 29.0052L23.4907 28.7134L23.4585 28.5617L23.386 28.2344L23.3497 28.0695L23.2771 27.7463L23.1757 27.3102L22.9515 26.3621L17.5448 26.3407L12.139 26.3201L12.0854 26.5055L12.0813 26.5187L12.064 26.583L12.0541 26.6218L12.0261 26.7331L12.0104 26.7949L11.9716 26.9474L11.9519 27.0282L11.9049 27.2162L11.8801 27.3135L11.8257 27.5303L11.7985 27.6416L11.7383 27.8824L11.5462 28.6615L11.5017 28.8428L11.4201 29.1644L11.3813 29.3185L11.3104 29.5898L11.2758 29.7192L11.214 29.9426L11.1843 30.049L11.1307 30.2287L11.1043 30.3136L11.0573 30.453L11.0351 30.5173L10.9939 30.6203L10.9741 30.6673L10.937 30.7357L10.8867 30.805L10.8611 30.8305L10.7985 30.8734L10.7614 30.8932L10.6394 30.9237L10.6031 30.9303L10.5116 30.9427L10.4613 30.9484L10.3384 30.9583L10.2725 30.9625L10.1125 30.9699L10.0268 30.9732L9.82399 30.9781L9.71599 30.9806L9.46371 30.9831L9.33097 30.9839L9.02346 30.9847L8.86269 30.9855L8.49417 30.9839L8.30208 30.9831L7.86677 30.9806L7.64005 30.9789L7.1322 30.974L6.86838 30.9715L6.28138 30.9657L5.97799 30.9625L5.30607 30.955L5.13294 30.9526L4.76854 30.9484L4.58387 30.9468M20.6109 19.3544V19.3511L20.6043 19.3264L20.5994 19.3115L20.5845 19.2645L20.5672 19.2126L20.5112 19.0526L20.4807 18.9644L20.404 18.7484L20.2721 18.3857L20.2358 18.2859L20.1484 18.0617L20.1022 17.9463L19.9959 17.6923L19.9406 17.5621L19.8203 17.2851L19.7576 17.1449L19.6257 16.8506L19.4905 16.5538L19.1987 15.9371L19.0511 15.6288L18.7535 15.0269L18.6801 14.8802L18.5358 14.5966L18.4649 14.4581L18.328 14.1959L18.2613 14.0681L18.1343 13.8331L18.0733 13.7202L17.9604 13.519L17.9059 13.4234L17.8095 13.2626L17.7633 13.1876L17.6866 13.073L17.6512 13.0219L17.5976 12.9592L17.5465 12.932L17.5358 12.9394L17.4912 13.0013L17.4657 13.04L17.3956 13.1604L17.3585 13.2272L17.2662 13.3978L17.2184 13.4893L17.1071 13.7045L17.0502 13.8166L16.9232 14.0689L16.8589 14.1992L16.7196 14.4811L16.5786 14.7697L16.2736 15.4086L16.1186 15.7335L15.8069 16.4037L15.6528 16.7368L15.3601 17.3823L15.2892 17.5398L15.1556 17.8407L15.0913 17.9875L14.9718 18.2637L14.9141 18.3972L14.8118 18.6413L14.6816 18.9628L14.5126 19.3956H17.5613H17.7716L18.1739 19.3948L18.3726 19.394L18.746 19.3923L18.9282 19.3915L19.2638 19.3882L19.4254 19.3874L19.7156 19.3832L19.8533 19.3816L20.0882 19.3775L20.1979 19.375L20.3702 19.3701L20.4477 19.3676L20.5491 19.3626L20.5895 19.3593M42.0792 30.9418L41.8806 30.9394L41.5087 30.9352L41.3282 30.9328L40.9926 30.9287L40.8286 30.9262L40.526 30.9212L40.3793 30.9196L40.1088 30.9146L39.9777 30.9122L39.737 30.9072L39.6208 30.9047L39.4097 30.8998L39.3067 30.8973L39.122 30.8916L39.0329 30.8891L38.8738 30.8833L38.7972 30.88L38.662 30.8742L38.5968 30.8709L38.483 30.8635L38.3742 30.8569L38.2168 30.8413L38.1467 30.833L38.0552 30.8149L37.9777 30.7836L37.9702 30.777L37.9554 30.753L37.9488 30.7382L37.9356 30.6929L37.9299 30.6665L37.9191 30.5915L37.9134 30.5494L37.9035 30.4356L37.8993 30.3738L37.8911 30.2147L37.887 30.1289L37.8796 29.9162L37.8763 29.8016L37.8705 29.5271L37.8672 29.3812L37.8631 29.0366L37.8606 28.8552L37.8565 28.4323L37.8557 28.3218L37.854 28.0835L37.8532 27.9623L37.8515 27.7018L37.8507 27.5691L37.8499 27.2863L37.8491 27.1412L37.8482 26.8337L37.8474 26.677L37.8466 26.344L37.8458 26.175L37.8449 25.8155V25.6333L37.8441 25.2466V25.0504L37.8433 24.6357V24.4247L37.8425 23.9811V23.7561V23.282V23.0413L37.8416 22.5359V22.2795V21.742V21.4691V20.8986V20.004V9.33748H33.8802H29.9196L29.7044 9.12231L29.4884 8.9063L29.5404 5.60361L29.5429 5.42553L29.5486 5.09741L29.5511 4.93747L29.556 4.64314L29.5585 4.50052L29.5635 4.23917L29.5659 4.11303L29.5717 3.88219L29.5742 3.77089L29.5791 3.5689L29.5816 3.47162L29.5874 3.29601L29.5907 3.21192L29.5964 3.06187L29.5989 2.98932L29.6055 2.86154L29.6121 2.73952L29.6261 2.55567L29.6344 2.4724L29.6517 2.35368L29.6616 2.30174L29.683 2.23332L29.7209 2.17066L29.7251 2.16736L29.7481 2.15994L29.7622 2.15664L29.8108 2.15005L29.8388 2.14675L29.918 2.14015L29.9608 2.13686L30.0746 2.13109L30.1365 2.12861L30.2898 2.12284L30.3722 2.12037L30.5709 2.11542L30.6756 2.11295L30.923 2.108L31.0532 2.10553L31.355 2.10058L31.5133 2.09893L31.8735 2.09481L32.0623 2.09234L32.4861 2.08904L32.707 2.08657L33.2001 2.08327L33.4556 2.08162L34.022 2.07832L34.3147 2.07667L34.9594 2.07337L35.2917 2.07173L36.0188 2.06925L36.206 2.06843L36.5967 2.0676L36.7954 2.06678L37.2085 2.06513H37.4179L37.854 2.06348L38.075 2.06266L38.535 2.06183L38.7675 2.06101L39.2522 2.06018H39.4971L40.0058 2.05853H40.263L40.7972 2.05771L41.0677 2.05689L41.6274 2.05606L41.9111 2.05524L42.4981 2.05441H42.794L43.4082 2.05359L43.7182 2.05276L44.3605 2.05194H44.6845L45.3547 2.05112H45.6927L46.3919 2.05029H46.7456L47.4735 2.04947L47.8421 2.04864H48.6005L48.9831 2.04782H49.7729L50.1719 2.04699H50.9922H51.4069L52.2594 2.04617H52.6897L53.5752 2.04534H54.022H54.9405L55.4038 2.04452H56.356H56.8367L57.8235 2.0437H58.3206H59.3421H59.8574L60.9143 2.04287H61.4477H62.5409H63.0925H64.222L64.7916 2.04205H65.959H66.5477H67.753H68.3606H69.6039H70.2313L71.5141 2.04122H72.1605H73.4829H74.1498H75.5126H76.1994H77.6034H78.3108H79.756H80.484H81.9721H84.2516H85.086H86.7159H87.5247H89.1043H89.8883H91.4185H92.1778H93.6593H94.3947H95.8284H96.5399H97.9274H98.615H99.9555H100.621L101.916 2.04205H102.558H103.809H104.429H105.636H106.234H107.398H107.974L109.096 2.04287H109.652H110.732H111.267H112.306L112.821 2.0437H113.82H114.315H115.275L115.751 2.04452H116.673H117.129L118.013 2.04534H118.451L119.298 2.04617H119.717L120.529 2.04699H120.931L121.707 2.04782H122.091L122.833 2.04864H123.2L123.908 2.04947H124.257L124.933 2.05029H125.267L125.91 2.05112L126.228 2.05194L126.84 2.05276H127.142L127.723 2.05359L128.011 2.05441L128.563 2.05524L128.835 2.05606L129.358 2.05689L129.615 2.05771L130.111 2.05853L130.354 2.05936L130.822 2.06018L131.052 2.06101L131.493 2.06183L131.71 2.06266L132.125 2.06348L132.329 2.06431L132.719 2.06596L132.912 2.06678L133.278 2.06843L133.457 2.06925L133.8 2.07008L133.968 2.0709L134.288 2.07255L134.445 2.07337L134.743 2.07502L135.036 2.0775L135.559 2.0808L135.81 2.08244L136.256 2.08657L136.47 2.08904L136.845 2.09316L137.025 2.09563L137.335 2.10058L137.482 2.10305L137.734 2.10883L137.853 2.1113L138.053 2.11707L138.147 2.12037L138.301 2.12696L138.373 2.12944L138.488 2.13686L138.541 2.14015L138.622 2.14757L138.66 2.15087L138.714 2.15912L138.738 2.16241L138.772 2.17148L138.827 2.19786L138.847 2.21765L138.883 2.25805L138.899 2.28031L138.926 2.34626L138.938 2.38501L138.956 2.50291L138.96 2.53671L138.968 2.61833L138.971 2.6612L138.977 2.76425L138.98 2.81949L138.984 2.94728L138.987 3.01488L138.99 3.17152L138.992 3.25314L138.994 3.44112L138.995 3.53922L138.997 3.761L138.998 3.87642L138.998 4.13694L138.999 4.27132V4.57224L139 4.72806V5.0735V5.64401V8.93269L138.798 9.1355L138.595 9.33748H93.7838H48.9715V20.0016V30.6648L48.7984 30.8223L48.7728 30.8454L48.7052 30.8833L48.6657 30.9014L48.5354 30.9295L48.4967 30.9352L48.4002 30.9468L48.3483 30.9517L48.2205 30.9608L48.152 30.9641L47.9872 30.9707L47.8998 30.974L47.692 30.9781L47.5824 30.9806L47.326 30.9831L47.1916 30.9839L46.8816 30.9847H46.7192L46.3498 30.9831L46.1569 30.9822L45.7216 30.9798L45.4949 30.9781L44.9887 30.9732L44.7265 30.9707L44.1436 30.9649L43.8419 30.9616L43.1766 30.9542L43.0051 30.9526L42.6448 30.9484L42.4618 30.946M52.538 30.9625L52.482 30.9509L52.3905 30.9303L52.3476 30.9146L52.2808 30.8371L52.2652 30.8108L52.2379 30.7374L52.2256 30.6962L52.2033 30.5865L52.1926 30.5263L52.1745 30.3722L52.1662 30.2889L52.1522 30.0828L52.1456 29.9731L52.1357 29.7068L52.1308 29.565L52.1233 29.2311L52.1192 29.0555L52.1143 28.645L52.1118 28.4298L52.1085 27.9359V27.8073L52.1069 27.532V27.391L52.106 27.0917L52.1052 26.9392V26.616V26.4511L52.1044 26.1016V25.9235V25.5476V25.3563V24.9523V24.747V24.3142V23.6324V23.423V23.0223V22.8244V22.4485V22.263V21.911V21.737L52.1052 21.4072V21.0824L52.106 20.4987V20.2167L52.1077 19.7138L52.1085 19.4715L52.1102 19.0428L52.111 18.8366L52.1143 18.4764L52.1159 18.3041L52.1192 18.0056L52.1209 17.863L52.1258 17.6198L52.1283 17.5052L52.1349 17.3114L52.1382 17.2199L52.1448 17.069L52.1489 16.999L52.158 16.8852L52.1629 16.8324L52.1728 16.7492L52.1844 16.6725L52.2116 16.5843L52.2619 16.4985L52.4193 16.304H57.7106H63.0018L63.1593 16.4985L63.1782 16.5224L63.2096 16.5843L63.2244 16.6214L63.2483 16.7492L63.2532 16.7879L63.2631 16.886L63.2681 16.9388L63.2763 17.0707L63.2796 17.1416L63.2862 17.3131L63.2895 17.4046L63.2953 17.6231L63.2978 17.7385L63.3019 18.0097L63.3035 18.1524L63.3068 18.4821L63.3085 18.6544L63.311 19.0502L63.3118 19.2563L63.3134 19.7229L63.3143 19.9661L63.3151 20.5102L63.3159 20.793V21.4221L63.3167 21.5845V21.9275V22.1014V22.4666V22.653V23.0421V23.6546V30.6154L63.1147 30.8182L62.9119 31.0202L57.8177 31.0086L57.4674 31.0078L56.7905 31.0061L56.4566 31.0045L55.8242 31.002L55.5151 31.0004L54.9421 30.9963L54.6643 30.9946L54.1647 30.9905L54.0451 30.9897L53.8225 30.9872L53.7137 30.9864L53.5142 30.9839L53.4177 30.9831L53.2429 30.9806L53.1588 30.9789L53.0121 30.9765L52.9412 30.9756L52.8225 30.9732L52.7672 30.9715L52.679 30.9699L52.6386 30.9682L52.5834 30.9657L52.5595 30.9649M66.6969 30.9138L66.4908 30.8091L66.4685 21.0832L66.4669 20.4146L66.4644 19.126V18.8086L66.4636 18.1911L66.4628 17.8852V17.2933V16.9998V16.4359V16.1572V15.6246V15.3625L66.4636 14.8653V14.6213L66.4644 14.1621L66.4652 13.9378L66.4661 13.5207L66.4669 13.3179L66.4685 12.946L66.4694 12.7663L66.471 12.4431L66.4718 12.2873L66.4735 12.0161L66.4743 11.8875L66.4768 11.6715L66.4776 11.5709L66.4801 11.4142L66.4817 11.3433L66.4842 11.2485L66.4883 11.1801L66.4949 11.1537L66.5246 11.1018L66.5419 11.0754L66.5914 11.0268L66.7909 10.9122L66.8033 10.908L66.8552 10.8998L66.8857 10.8957L66.9723 10.8882L67.0193 10.8841L67.1372 10.8775L67.1998 10.8734L67.3466 10.8676L67.4241 10.8643L67.598 10.8586L67.6887 10.8553L67.8882 10.8503L68.0927 10.8454L68.5667 10.8363L68.8132 10.8322L69.3566 10.8264L69.6352 10.8231L70.228 10.8198L70.5297 10.8182L71.1546 10.8157H71.4696H72.1069L72.4259 10.8165L73.0583 10.819L73.3724 10.8206L73.9808 10.8256L74.2801 10.8281L74.8448 10.8347L75.121 10.838L75.6247 10.847L75.8671 10.852L76.2909 10.8627L76.3906 10.866L76.5728 10.8718L76.6611 10.8751L76.816 10.8817L76.8903 10.885L77.0172 10.8924L77.0766 10.8957L77.173 10.9031L77.2167 10.9072L77.2786 10.9155L77.3321 10.9278L77.5383 11.0325L77.5597 13.6476L77.582 16.2628H82.6094H82.9556H83.6209H83.9482H84.5666H84.8691H85.4265H85.6961H86.1792H86.2938H86.5081H86.6128H86.8033H86.8956H87.0605H87.1405H87.279H87.3441H87.4538H87.5049H87.584H87.6203H87.6673H87.6994H87.7036L87.7126 16.21L87.7168 16.1754L87.725 16.0583L87.7291 15.9932L87.7374 15.8192L87.7415 15.726L87.7497 15.5026L87.753 15.3856L87.7604 15.1193L87.7637 14.9816L87.7695 14.6798L87.7728 14.5248L87.7778 14.1951L87.7827 13.6748L87.7844 13.5322L87.7868 13.27L87.7877 13.1423L87.7901 12.9081L87.7918 12.7943L87.7943 12.5874L87.7959 12.4868L87.7992 12.3046L87.8008 12.2164L87.8041 12.0581L87.8058 11.9815L87.8099 11.8446L87.814 11.7127L87.8239 11.5066L87.8297 11.4126L87.8429 11.2716L87.8503 11.2073L87.8676 11.1174L87.8775 11.0779L87.8998 11.0259L87.9402 10.9748L87.9459 10.9699L87.988 10.96L88.0144 10.955L88.0927 10.9451L88.1364 10.941L88.2502 10.9319L88.3112 10.9278L88.4563 10.9204L88.5321 10.9163L88.7069 10.9089L88.7976 10.9056L88.9996 10.8981L89.1035 10.8957L89.3294 10.8891L89.4448 10.8866L89.6929 10.8808L89.946 10.8759L90.5066 10.8676L90.7944 10.8635L91.4102 10.8577L91.7235 10.8553L92.374 10.852L92.7021 10.8503H93.3683H93.7013L94.3617 10.852L94.6898 10.8536L95.3255 10.8577L95.6388 10.8602L96.2291 10.8676L96.5176 10.8718L97.0428 10.8817L97.1697 10.8841L97.4063 10.8899L97.5226 10.8932L97.737 10.899L97.8408 10.9023L98.0288 10.9097L98.1195 10.913L98.2803 10.9212L98.3561 10.9245L98.4864 10.9336L98.5465 10.9377L98.643 10.9468L98.6867 10.9509L98.7477 10.9608L98.7963 10.9756L98.812 10.9888L98.8376 11.0622L98.8442 11.0869L98.8549 11.157L98.8607 11.1966L98.8706 11.3021L98.8747 11.3598L98.8829 11.5066L98.887 11.5865L98.8945 11.7836L98.8978 11.8891L98.9035 12.143L98.906 12.2782L98.9109 12.5965L98.9134 12.7638L98.9175 13.1546L98.9192 13.3591L98.9225 13.8282L98.9233 13.951L98.9241 14.2124L98.925 14.3459L98.9258 14.6295L98.9266 14.7738L98.9274 15.0805L98.9283 15.2372L98.9291 15.5678V15.7368L98.9299 16.0929V16.2743L98.9307 16.656V16.8506L98.9316 17.2595V17.4681V17.9042V18.1268L98.9324 18.5926V18.8292V19.3239V19.5753V20.1022V20.9266V30.7638L98.7494 30.8916L98.7288 30.9056L98.6595 30.9295L98.6175 30.941L98.4847 30.9592L98.446 30.9641L98.3528 30.9715L98.3033 30.9756L98.1846 30.9822L98.122 30.9847L97.9752 30.9905L97.8977 30.9938L97.7196 30.9979L97.6265 31.0004L97.4129 31.0045L97.3017 31.0061L97.0494 31.0086L96.9191 31.0103L96.6256 31.0127L96.4731 31.0136L96.1351 31.0152L95.9595 31.016L95.5736 31.0177H95.3733L94.9355 31.0185H94.7096L94.2166 31.0193H93.4111L93.1613 31.0185H92.6947H92.4671L92.0417 31.0177L91.834 31.0169L91.4482 31.016L91.2602 31.0152L90.9123 31.0136L90.7433 31.0127L90.4316 31.0103L90.2799 31.0094L90.0029 31.0061L89.8685 31.0053L89.6245 31.002L89.5066 31.0004L89.2939 30.9963L89.1908 30.9938L89.0078 30.9897L88.9196 30.9872L88.7638 30.9822L88.6896 30.9798L88.5601 30.9732L88.4983 30.9707L88.3936 30.9641L88.3441 30.9608L88.2617 30.9534L88.2238 30.9493L88.1619 30.941L88.0498 30.9138L87.8437 30.8091L87.8223 26.1321L87.8008 21.4551L82.7108 21.4765L77.6207 21.4979L77.6009 26.1148L77.5993 26.4017L77.5976 26.9235L77.596 27.1758L77.5935 27.6317L77.5927 27.8519L77.5902 28.2468L77.5894 28.4372L77.5861 28.7752L77.5853 28.9376L77.582 29.2245L77.5803 29.3614L77.5762 29.6013L77.5745 29.7151L77.5696 29.9113L77.5671 30.0045L77.5613 30.1636L77.558 30.2378L77.5514 30.3631L77.5473 30.4216L77.5391 30.5173L77.5341 30.5618L77.5242 30.6327L77.5193 30.6657L77.5069 30.7168L77.4946 30.7646L77.4632 30.8182L77.4063 30.8759L77.3857 30.8924L77.3272 30.9204L77.2917 30.9336L77.178 30.955L77.145 30.96L77.0626 30.969L77.018 30.9732L76.9109 30.9806L76.8531 30.9839L76.7171 30.9905L76.6446 30.993L76.4747 30.9979L76.3857 31.0004L76.1788 31.0045L76.0699 31.0061L75.8218 31.0094L75.6923 31.0111L75.3988 31.0136L75.2455 31.0144L74.9025 31.016L74.7245 31.0169L74.3279 31.0177H74.1218L73.6675 31.0185H73.4326L72.9165 31.0193H72.0673L71.8175 31.0185H71.35H71.1217L70.6954 31.0177L70.4868 31.0169L70.101 31.016L69.9122 31.0152L69.5643 31.0136L69.3945 31.0127L69.082 31.0103L68.9303 31.0094L68.6533 31.0061L68.5189 31.0053L68.2741 31.002L68.1562 31.0004L67.9426 30.9963L67.8396 30.9938L67.6566 30.9897L67.5675 30.9872L67.4117 30.9822L67.3375 30.9798L67.2081 30.9732L67.1462 30.9707L67.0415 30.9641L66.9912 30.9608L66.9088 30.9534L66.8709 30.9493L66.8099 30.941L66.753 30.9328M52.2693 14.9437L52.2305 14.9049L52.1786 14.8093L52.167 14.7804L52.1489 14.7013L52.1407 14.6576L52.1291 14.5413L52.1233 14.4778L52.1159 14.3113L52.1126 14.2206L52.1085 13.9923L52.1069 13.8694L52.1052 13.5668V13.486L52.1044 13.308V13.0153V12.8133L52.1052 12.4753L52.106 12.3162L52.1085 12.054L52.1102 11.9312L52.1159 11.7341L52.1192 11.6418L52.1291 11.4983L52.1341 11.4316L52.1489 11.3293L52.1563 11.2832L52.1769 11.2114L52.2619 11.0573L52.4193 10.8627H57.7106H63.0018L63.1593 11.0573L63.1955 11.1018L63.2442 11.2114L63.2557 11.2444L63.2722 11.3293L63.2805 11.3763L63.292 11.4983L63.2969 11.5643L63.3052 11.7341L63.3085 11.8256L63.3126 12.054L63.3143 12.1768L63.3159 12.4753L63.3167 13.0153V13.1184V13.308V13.3995L63.3159 13.5668L63.3151 13.7284L63.3126 13.9923L63.311 14.1159L63.3052 14.3113L63.3019 14.402L63.292 14.5413L63.287 14.6056L63.2722 14.7013L63.264 14.745L63.2425 14.8093L63.1518 14.9437L63.1321 14.9634L63.0834 14.9972L63.0546 15.0129L62.9597 15.0376L62.9317 15.0434L62.8592 15.0533L62.8196 15.0582L62.7215 15.0665L62.6687 15.0706L62.5401 15.078L62.4717 15.0813L62.3084 15.0863L62.2211 15.0896L62.0174 15.0937L61.9094 15.0953L61.6604 15.0986L61.5294 15.1003L61.2293 15.1028L61.0726 15.1036L60.7173 15.1052L60.5326 15.1061L60.1171 15.1069L59.9019 15.1077H59.4213L59.1723 15.1085H58.6216H57.7106H57.3874H56.7996H56.5151L55.9999 15.1077H55.7509L55.304 15.1069H55.088L54.7038 15.1052L54.5183 15.1044L54.1919 15.1028L54.0352 15.1019L53.7607 15.0986L53.6304 15.0978L53.4037 15.0937L53.2965 15.0912L53.1127 15.0863L53.0261 15.0838L52.881 15.078L52.8126 15.0747L52.6996 15.0665L52.6469 15.0624L52.562 15.0533L52.5232 15.0484L52.4614 15.0376L52.4037 15.0261L52.3377 14.9972L52.3088 14.9816L52.2693 14.9437Z" fill="#3F91CB"/>
<path d="M26.6293 44.3895L26.5518 44.3763L26.4257 44.3548L26.3671 44.3449L26.2756 44.3243L26.2336 44.3144L26.1717 44.2889L26.1437 44.2749L26.1058 44.2369L26.0893 44.2163L26.0703 44.1603L26.0629 44.1289L26.058 44.0481L26.0563 44.0036L26.0604 43.8898L26.0695 43.6763L26.0934 43.0811L26.3844 43.1066L26.4966 43.1165L26.6895 43.1009L26.781 43.0868L26.936 43.0234L27.0094 42.9863L27.1289 42.8733L27.2707 42.6491L27.2856 42.6153L27.3111 42.5369L27.3235 42.4949L27.3441 42.3869L27.3532 42.3284L27.3696 42.1775L27.3771 42.095L27.3903 41.8865L27.396 41.7735L27.4059 41.4924L27.4084 41.4165L27.4125 41.2492L27.4142 41.1634L27.4183 40.973L27.4199 40.8749L27.4241 40.6597L27.4257 40.5492L27.429 40.3077L27.4307 40.1832L27.4331 39.9136L27.4381 39.4742L27.4669 36.6092H30.0985H32.7301V40.4017V44.1941H31.9469H31.1637V41.0612V37.9283H30.0919H29.0202V40.0348V40.1824L29.0193 40.4577L29.0185 40.5921L29.016 40.8419L29.0144 40.9639L29.0094 41.1898L29.007 41.3003L29.0004 41.5047L28.9938 41.7043L28.9724 42.0448L28.96 42.2072L28.927 42.4842L28.908 42.6153L28.8619 42.8428L28.8363 42.9516L28.7745 43.1429L28.7407 43.2361L28.6607 43.4067L28.5197 43.6549L28.4769 43.7217L28.3895 43.8363L28.345 43.8907L28.2501 43.9838L28.2015 44.0283L28.0968 44.1017L27.9261 44.1924L27.8322 44.2336L27.612 44.3004L27.4983 44.3317L27.2616 44.3738L27.1437 44.3919L26.9195 44.4059L26.8115 44.4092M37.4294 44.3474L37.3 44.326L37.0452 44.26L36.9191 44.2237L36.6734 44.1306L36.5514 44.0803L36.3181 43.9607L36.2027 43.8981L35.9842 43.7555L35.8778 43.6813L35.6783 43.518L35.5819 43.4339L35.4054 43.2517L35.3205 43.1586L35.1696 42.9607L34.9775 42.6482L34.8902 42.4817L34.7566 42.1569L34.6956 41.9928L34.6107 41.6499L34.5736 41.4726L34.5299 41.0802L34.5216 40.9779L34.5117 40.7578L34.506 40.4017V40.198L34.5282 39.8163L34.5431 39.63L34.5958 39.2821L34.6255 39.1122L34.7096 38.7965L34.7549 38.6423L34.8704 38.3579L34.9322 38.2194L35.0798 37.9638L35.1573 37.8393L35.3378 37.6118L35.4318 37.5013L35.6453 37.3001L36.004 37.0272L36.1672 36.9192L36.511 36.7502L36.6858 36.6736L37.0592 36.5655L37.2505 36.5194L37.6619 36.4699L38.3297 36.4617L38.4154 36.4658L38.5655 36.4749L38.638 36.4798L38.765 36.4914L38.8887 36.5037L39.094 36.5425L39.1929 36.5647L39.3883 36.6307L39.7222 36.7725L39.8409 36.8269L40.061 36.9506L40.169 37.014L40.3694 37.1567L40.4666 37.23L40.6464 37.3916L40.7338 37.4757L40.8937 37.6571L40.9712 37.7511L41.1114 37.9531L41.1798 38.057L41.3001 38.2804L41.3587 38.3941L41.4609 38.6382L41.5928 39.0298L41.6143 39.1023L41.6497 39.2837L41.6662 39.3785L41.6926 39.5945L41.7165 39.8163L41.7346 40.3143L41.7388 40.5641L41.7165 41.0439L41.7082 41.1585L41.6843 41.3679L41.6365 41.64L41.592 41.8296L41.4708 42.1824L41.4049 42.3547L41.2424 42.673L41.1559 42.8271L40.9539 43.1075L40.8475 43.2427L40.6076 43.4842L40.4823 43.5996L40.2069 43.8L40.0643 43.8948L39.7543 44.0523L39.5952 44.1248L39.2539 44.2378L38.7073 44.3548L38.6257 44.3672L38.4896 44.3862L38.4262 44.3944L38.3182 44.4076L38.2159 44.4191L38.0543 44.4249L37.9744 44.4241L37.7971 44.4043L37.7485 44.3985L37.6347 44.3804L37.5745 44.3713M38.9703 42.8387L39.1039 42.7769L39.3339 42.6153L39.4427 42.5287L39.6265 42.3127L39.7139 42.1973L39.8566 41.9219L40.0289 41.4347L40.0528 41.3456L40.0899 41.1511L40.1064 41.0513L40.1278 40.8419L40.1459 40.6292L40.1377 40.1881L40.1262 39.9696L40.0618 39.555L40.0421 39.456L39.9934 39.2714L39.9044 39.0224L39.8623 38.9234L39.7617 38.7437L39.709 38.6563L39.5903 38.4997L39.5293 38.4247L39.3949 38.2911L39.3265 38.2276L39.1789 38.1188L39.1039 38.0668L38.9464 37.9811L38.8664 37.9415L38.7007 37.8797L38.6174 37.8517L38.4468 37.8137L38.361 37.7981L38.1879 37.7849L38.1005 37.7808L37.9274 37.7915L37.8408 37.7997L37.6702 37.8352L37.5852 37.855L37.4195 37.9152L37.3371 37.9473L37.1788 38.0314L37.1013 38.0767L36.9529 38.1856L36.8803 38.2425L36.746 38.376L36.68 38.4461L36.5605 38.6044L36.4005 38.8707L36.3445 38.9803L36.2661 39.1592L36.2315 39.2474L36.1878 39.428L36.1779 39.4758L36.1631 39.583L36.1565 39.639L36.1458 39.7677L36.1417 39.8353L36.1334 39.9936L36.1235 40.2722L36.1202 40.3703L36.1169 40.5402L36.1153 40.6218V40.7636L36.1169 40.8988L36.1326 41.1107L36.1441 41.2113L36.1845 41.3902L36.2793 41.6795L36.3337 41.8271L36.4747 42.0893L36.5506 42.2146L36.7286 42.4306L36.8218 42.5328L37.0312 42.701L37.1392 42.7785L37.3742 42.8947L37.4937 42.9467L37.7485 43.0093L37.8771 43.0341L38.145 43.0407L38.2794 43.0374L38.5548 42.9854L38.6933 42.9516M84.3926 44.3507L84.2145 44.3243L83.8798 44.2369L83.7166 44.1866L83.4115 44.0523L83.2631 43.9789L82.9894 43.7992L82.8567 43.7035L82.6168 43.4801L82.5005 43.3639L82.2944 43.0984L82.1963 42.9607L82.0265 42.6557L81.9465 42.4982L81.8146 42.1544L81.6613 41.5971L81.6324 41.4586L81.5912 41.1692L81.573 41.0225L81.5549 40.7232L81.5491 40.5731L81.5524 40.2697L81.5574 40.1189L81.5821 39.8188L81.5978 39.6696L81.644 39.3794L81.6687 39.2351L81.7355 38.9605L81.7709 38.8262L81.8558 38.5739L82.0051 38.2284L82.0834 38.0743L82.2928 37.7717L82.4049 37.6233L82.6654 37.3471L82.8006 37.2152L83.0917 36.9868L83.5385 36.7222L83.6572 36.6678L83.8444 36.5928L83.9359 36.5606L84.1239 36.5219L84.1741 36.5144L84.2871 36.5029L84.3473 36.4979L84.4858 36.4922L84.5592 36.4905L84.7323 36.4881L85.0406 36.4872L85.1882 36.4881L85.452 36.4955L85.579 36.5012L85.8074 36.521L85.9178 36.5334L86.1173 36.5672L86.2146 36.587L86.3935 36.6381L86.4809 36.6653L86.645 36.7354L86.7266 36.7733L86.8841 36.864L86.9624 36.9126L87.1199 37.0272L87.3639 37.2276L87.4801 37.329L87.7052 37.5961L87.8149 37.7354L88.0045 38.0405L88.0919 38.193L88.2164 38.484L88.2419 38.5533L88.2757 38.6802L88.2972 38.8484V39.0826L87.4933 39.0784L86.6895 39.0751L86.4834 38.6456L86.4488 38.5739L86.3737 38.4461L86.335 38.3851L86.2509 38.2779L86.208 38.2268L86.1124 38.1402L86.0629 38.099L85.9549 38.0306L85.8989 37.9992L85.776 37.949L85.7125 37.9259L85.5732 37.8921L85.5007 37.8772L85.3424 37.8591L85.0818 37.8484H84.9219L84.6301 37.897L84.4883 37.9292L84.2352 38.0405L84.1131 38.1031L83.9004 38.2746L83.799 38.3669L83.6275 38.5961L83.5476 38.7173L83.4198 39.0026L83.3613 39.151L83.278 39.489L83.2425 39.6646L83.2054 40.0529L83.2046 40.691L83.2137 40.8774L83.2598 41.2178L83.287 41.3819L83.367 41.6779L83.4115 41.8205L83.5261 42.072L83.5872 42.1915L83.7339 42.3968L83.8114 42.4941L83.9903 42.6524L84.0843 42.7257L84.2945 42.837L84.4042 42.8865L84.6449 42.9483L85.0406 42.9863H85.1354L85.3152 42.9681L85.4026 42.9566L85.5691 42.9154L85.6507 42.8923L85.8024 42.8288L85.8758 42.7942L86.0126 42.7092L86.0786 42.6639L86.1981 42.5576L86.2559 42.5023L86.3573 42.3762L86.4067 42.3102L86.49 42.1643L86.5922 41.9244L86.706 41.5971L87.5123 41.5732L88.3194 41.5493L88.265 41.8205L88.2535 41.8766L88.2172 42.0044L88.1966 42.0695L88.143 42.2121L88.0861 42.3564L87.9377 42.6631L87.8594 42.8148L87.6871 43.0984L87.6442 43.1652L87.5576 43.2855L87.4315 43.4405L87.3837 43.4941L87.2707 43.5972L87.2114 43.6491L87.0786 43.7472L86.941 43.8445L86.6227 44.0168L86.4587 44.0976L86.1074 44.2262L85.5765 44.3557L85.5031 44.368L85.3622 44.3878L85.2937 44.3977L85.1742 44.4125L85.1181 44.4191L85.0324 44.4274L84.9582 44.4307L84.9466 44.429L84.8881 44.4216L84.8535 44.4167L84.7578 44.4035L84.6556 44.3886M100.622 44.3499L100.451 44.3251L100.101 44.2237L99.9267 44.1652L99.5911 44.0077L99.4279 43.9236L99.1327 43.7225L98.7634 43.3869L98.6768 43.2888L98.5243 43.0926L98.4509 42.9937L98.3248 42.7925L98.2646 42.6911L98.1632 42.4801L98.1154 42.3721L98.0362 42.1462L97.9991 42.0307L97.9414 41.7834L97.915 41.6564L97.8763 41.3836L97.8598 41.2434L97.8392 40.94L97.826 40.4429V40.3077L97.8318 40.0603L97.8351 39.94L97.8499 39.7182L97.8672 39.5005L97.9348 39.1213L97.9744 38.9366L98.0923 38.592L98.3355 38.071L98.4056 37.9407L98.6043 37.6761L98.7114 37.545L98.9654 37.296L99.0973 37.1748L99.3825 36.9621L99.8211 36.7065L99.9291 36.6562L100.104 36.587L100.19 36.5565L100.374 36.521L100.424 36.5136L100.537 36.5029L100.595 36.4979L100.734 36.493L100.806 36.4905L100.978 36.4881L101.282 36.4872H101.387L101.568 36.4897L101.655 36.4905L101.806 36.4955L101.879 36.4979L102.006 36.5062L102.067 36.5111L102.176 36.5235L102.281 36.5375L102.463 36.5812L102.741 36.6777L102.852 36.7214L103.065 36.8335L103.17 36.8929L103.37 37.0314L103.468 37.1039L103.652 37.2663L103.741 37.3496L103.904 37.5293L103.983 37.6217L104.121 37.8162L104.187 37.9143L104.298 38.1188L104.349 38.2218L104.428 38.4313L104.506 38.7462L104.56 39.0826H103.741H102.923L102.814 38.7734L102.786 38.6942L102.718 38.5524L102.682 38.484L102.597 38.3628L102.552 38.3043L102.449 38.2029L102.397 38.1542L102.276 38.0734L102.214 38.0347L102.076 37.9729L102.004 37.9448L101.848 37.9028L101.767 37.8838L101.591 37.8607L101.306 37.8475H101.148L100.867 37.8896L100.733 37.9176L100.495 38.0174L100.38 38.0743L100.177 38.235L99.9069 38.5475L99.8516 38.6275L99.7535 38.8171L99.7074 38.916L99.6282 39.1386L99.5911 39.2532L99.5318 39.4997L99.5045 39.625L99.4658 39.8864L99.4485 40.0183L99.432 40.2862L99.4262 40.4206L99.432 40.6869L99.4378 40.8188L99.4674 41.0744L99.54 41.4363L99.5746 41.5682L99.6587 41.8065L99.7024 41.9211L99.803 42.1247L99.8558 42.222L99.9753 42.391L100.038 42.4718L100.176 42.6078L100.248 42.6713L100.406 42.7744L100.488 42.8222L100.666 42.8923L100.759 42.9236L100.958 42.9624L101.282 42.9863H101.376L101.556 42.9673L101.645 42.9558L101.812 42.9137L101.894 42.8898L102.047 42.8247L102.122 42.7892L102.261 42.7035L102.327 42.6573L102.449 42.5501L102.507 42.4941L102.611 42.3671L102.66 42.3012L102.745 42.1544L102.847 41.9153L102.956 41.5971L103.755 41.5732L104.553 41.5501L104.497 41.8205L104.486 41.8782L104.449 42.0077L104.428 42.0744L104.374 42.2179L104.318 42.3638L104.171 42.6697L104.094 42.8214L103.924 43.1025L103.882 43.1685L103.797 43.288L103.673 43.4405L103.625 43.4941L103.512 43.5972L103.453 43.6491L103.32 43.7472L103.182 43.8445L102.864 44.0168L102.7 44.0976L102.349 44.2262L101.818 44.3557L101.745 44.368L101.604 44.3878L101.535 44.3977L101.416 44.4125L101.36 44.4191L101.274 44.4274L101.2 44.4307L101.188 44.429L101.129 44.4216L101.093 44.4167L100.996 44.4026L100.891 44.3886M0 40.4017V36.5969L2.20537 36.6241L2.33645 36.6257L2.57636 36.6282L2.69261 36.6299L2.90367 36.6332L3.0059 36.6348L3.19222 36.6381L3.28208 36.6397L3.44367 36.643L3.60031 36.6463L3.85177 36.6562L3.96884 36.6612L4.15351 36.6736L4.23925 36.681L4.37528 36.6991L4.43877 36.709L4.54265 36.7337L4.82213 36.8401L4.94744 36.8978L5.15355 37.0149L5.25084 37.0742L5.41078 37.2045L5.48663 37.2729L5.61359 37.4279L5.78095 37.7016L5.82794 37.794L5.90049 37.9811L5.93265 38.0751L5.97387 38.2631L5.99118 38.3571L6.00272 38.5434L6.0052 38.6357L5.98706 38.8179L5.97469 38.9086L5.92687 39.085L5.89967 39.1716L5.82382 39.3398L5.78177 39.4222L5.67625 39.5797L5.48663 39.8006L5.41325 39.874L5.31349 39.9812L5.27145 40.029L5.22858 40.095L5.21374 40.1238L5.22116 40.1601L5.28134 40.1972L5.30113 40.2038L5.36378 40.2434L5.39759 40.2664L5.48003 40.3349L5.75539 40.6003L5.82547 40.6762L5.94254 40.8411L5.99695 40.926L6.08434 41.1065L6.12391 41.1989L6.18163 41.3918L6.20636 41.4899L6.23274 41.6927L6.24263 41.7958L6.23851 42.0044L6.23274 42.1099L6.19729 42.3226L6.17585 42.4289L6.1099 42.6416L5.97469 42.9574L5.91451 43.0761L5.77848 43.2814L5.70757 43.3795L5.54351 43.5485L5.45777 43.6301L5.25661 43.7719L4.9054 43.9632L4.80729 44.0086L4.62509 44.0696L4.5748 44.0828L4.45608 44.1042L4.39177 44.1141L4.23183 44.1298L4.14444 44.1363L3.92514 44.1479L3.80642 44.1528L3.51045 44.1603L3.43048 44.1619L3.25323 44.1652L3.16171 44.1669L2.95973 44.1702L2.85502 44.1718L2.62501 44.1751L2.24659 44.1792L0 44.2056V40.4017ZM4.07849 42.7579L4.14939 42.7282L4.27141 42.6425L4.32912 42.5963L4.42393 42.4834L4.46845 42.424L4.5344 42.2896L4.56408 42.2204L4.60036 42.0736L4.6152 41.9994L4.62014 41.8461L4.61849 41.7694L4.59046 41.6185L4.57233 41.5435L4.50967 41.4017L4.37611 41.2071L4.1362 40.9375L2.80968 40.9112L1.48399 40.8848V41.8799V42.875H2.64067H2.7429L2.9284 42.8733L3.01826 42.8725L3.18068 42.8684L3.33814 42.8634L3.59042 42.8469L3.70667 42.8379L3.88475 42.8107L3.96554 42.7958M4.21122 39.2664L4.28377 39.1856L4.38106 39.0075L4.42063 38.9168L4.45196 38.7346L4.45938 38.6448L4.4231 38.4774L4.29202 38.2631L4.23018 38.2012L4.05953 38.1064L4.01253 38.085L3.90206 38.0479L3.84352 38.0314L3.70914 38.0025L3.63906 37.9894L3.47747 37.9696L3.39338 37.9597L3.20129 37.9465L3.10071 37.9399L2.87481 37.9333L2.49392 37.9292L1.48399 37.9283V38.7586V39.5888L2.72724 39.5624L3.97131 39.536L4.21122 39.2664ZM7.99703 40.4074V36.6092H8.82147H9.64591V38.085V39.5607L11.0681 39.5921L11.2362 39.5962L11.5166 39.6028L11.6493 39.6069L11.8669 39.6151L11.9692 39.6193L12.1365 39.63L12.2149 39.6358L12.3435 39.6506L12.4036 39.6588L12.5051 39.6794L12.5537 39.691L12.6403 39.719L12.9024 39.8402L13.0063 39.8946L13.1918 40.0125L13.2817 40.0727L13.4391 40.2046L13.5142 40.2714L13.6444 40.4173L13.7063 40.4923L13.8093 40.6548L13.858 40.738L13.9363 40.9178L13.9717 41.0101L14.0253 41.2096L14.0484 41.311L14.0773 41.5311L14.0954 41.8856V42.0134L14.0764 42.2517L14.0641 42.3688L14.0187 42.5848L13.9923 42.6911L13.9198 42.8865L13.8802 42.9821L13.7796 43.1577L13.7252 43.2435L13.5958 43.401L13.5274 43.4776L13.3691 43.6186L13.2858 43.6862L13.097 43.8107L12.7788 43.9805L12.693 44.0201L12.5174 44.0753L12.4688 44.0869L12.3492 44.1067L12.2849 44.1157L12.1242 44.1306L12.0376 44.1372L11.8208 44.1479L11.7037 44.1528L11.4143 44.1603L11.3368 44.1619L11.1653 44.1652L11.0771 44.1669L10.8826 44.1702L10.782 44.1718L10.5627 44.1751L10.2024 44.1792L7.99703 44.2064V40.4074ZM12.0071 42.7406L12.0681 42.7117L12.1753 42.6367L12.2256 42.5971L12.3121 42.504L12.3525 42.4553L12.4177 42.3465L12.4465 42.2913L12.4886 42.1709L12.5067 42.1091L12.5248 41.9813L12.5314 41.917L12.5248 41.7842L12.5182 41.7175L12.4853 41.5847L12.4061 41.3885L12.3797 41.3366L12.322 41.2484L12.2915 41.2071L12.2214 41.137L12.1843 41.1049L12.0961 41.0513L12.0483 41.0266L11.9337 40.9878L11.8727 40.9697L11.726 40.9433L11.6476 40.9309L11.4613 40.9153L11.3624 40.9079L11.1299 40.9004L10.7218 40.8963H9.64591V41.8856V42.875H10.6847H10.7836L10.9592 42.8733L11.0442 42.8725L11.1942 42.8684L11.2668 42.8659L11.3937 42.8593L11.4547 42.856L11.5611 42.8461L11.6641 42.8354L11.8208 42.8049L11.8933 42.7867M15.4994 40.4017V36.6092H16.2826H17.0658V40.4017V44.1941H16.2826H15.4994V40.4017ZM18.7683 43.8437L18.7831 43.8198L18.8318 43.7414L18.8598 43.6986L18.9307 43.5856L18.9686 43.5254L19.0585 43.3836L19.1047 43.3094L19.2102 43.1429L19.319 42.9706L19.568 42.5765L19.9646 41.9491L20.0989 41.7364L20.3438 41.3432L20.4015 41.2492L20.5095 41.0744L20.5614 40.9895L20.6538 40.8361L20.6983 40.7628L20.7733 40.6358L20.8088 40.5764L20.864 40.48L20.8887 40.4363L20.9209 40.3761L20.9407 40.3291V40.3242L20.9176 40.2772L20.9028 40.2483L20.8525 40.1584L20.8244 40.109L20.7502 39.9812L20.7098 39.9128L20.6134 39.7512L20.5631 39.6671L20.4485 39.4775L20.39 39.3802L20.2597 39.1675L19.8277 38.4692L19.6744 38.2235L19.3957 37.7725L19.3289 37.6653L19.2069 37.4667L19.1475 37.3702L19.042 37.1971L18.9909 37.1146L18.9052 36.9736L18.8656 36.9069L18.8029 36.8022L18.7741 36.7543L18.7378 36.6909L18.7147 36.6463V36.6439L18.7337 36.6389L18.7469 36.6365L18.7889 36.6323L18.8367 36.6274L18.9909 36.62L19.0758 36.6167L19.2893 36.6125L19.6546 36.6092H20.5936L21.2416 37.8039L21.3306 37.9679L21.4964 38.2672L21.5755 38.4098L21.7107 38.6473L21.742 38.7008L21.7956 38.7932L21.8212 38.836L21.8632 38.9037L21.8822 38.9342L21.9086 38.9737L21.93 38.9976H21.9325L21.9514 38.9737L21.963 38.9572L21.9984 38.9037L22.0174 38.8731L22.066 38.7932L22.0924 38.7503L22.1526 38.6473L22.2161 38.5393L22.3711 38.268L22.6308 37.8055L23.2903 36.6125L24.2228 36.6109H24.3135L24.4701 36.6117L24.5443 36.6125L24.6713 36.615L24.7306 36.6167L24.8287 36.6216L24.8749 36.6241L24.9475 36.6307L24.9804 36.6348L25.0299 36.6447L25.0513 36.6496L25.0794 36.6628L25.0926 36.7123L25.0884 36.7197L25.0579 36.7684L25.039 36.798L24.9821 36.8887L24.9507 36.9382L24.87 37.0652L24.8271 37.1336L24.7265 37.2919L24.6737 37.3751L24.5567 37.5598L24.4957 37.6555L24.3646 37.8624L23.9334 38.5409L23.8707 38.6398L23.7561 38.8204L23.7001 38.9086L23.5987 39.0694L23.55 39.1477L23.461 39.2887L23.4189 39.3571L23.3423 39.4816L23.2681 39.6011L23.1543 39.794L23.1015 39.8831L23.0265 40.0224L22.9927 40.0867L22.9507 40.1848L22.9334 40.2293L22.9185 40.2969L22.9136 40.3275L22.9202 40.3753L22.9482 40.4371L22.9754 40.4792L23.0446 40.5872L23.0818 40.6449L23.1683 40.7817L23.2137 40.8534L23.3151 41.0134L23.367 41.0967L23.4791 41.2756L23.5937 41.4586L23.8435 41.8593L23.9697 42.0629L24.2252 42.4751L24.3514 42.6787L24.588 43.0638L24.6449 43.1561L24.7512 43.3292L24.8023 43.4133L24.8963 43.5667L24.9409 43.64L25.0184 43.767L25.0546 43.8272L25.1123 43.9245L25.1387 43.969L25.175 44.0316L25.2014 44.0803L25.2104 44.1034L25.1841 44.1372L25.1725 44.1446L25.1346 44.157L25.1132 44.1627L25.0522 44.1718L25.0184 44.1759L24.9318 44.1825L24.8848 44.185L24.7685 44.1891L24.7067 44.1908L24.5575 44.1932L24.2953 44.1941H23.3447L22.658 42.9574L22.564 42.7876L22.3884 42.4776L22.3043 42.3292L22.1609 42.0843L22.1271 42.0283L22.0702 41.9326L22.043 41.8881L21.9984 41.818L21.9787 41.7867L21.9498 41.7463L21.9267 41.7208H21.9242L21.9028 41.7463L21.8904 41.7628L21.8517 41.818L21.8303 41.8494L21.7767 41.9326L21.7478 41.9771L21.6802 42.0843L21.6093 42.1965L21.4378 42.4776L21.1493 42.9574L20.4172 44.1941H19.4823H18.5473L18.7683 43.8437ZM43.4478 40.4017V36.6092H46.5394H49.6311V40.4017V44.1941H48.8066H47.9822V41.0612V37.9283H46.5394H45.0967V41.0612V44.1941H44.2722H43.4478V40.4017ZM51.6097 40.4017V36.6092H52.3929H53.1762V38.052V39.4948H54.6601H56.1441V38.052V36.6092H56.9273H57.7106V40.4017V44.1941H56.9273H56.1441V42.504V40.8139H54.6601H53.1762V42.504V44.1941H52.3929H51.6097V40.4017ZM59.6892 40.4017V36.6092H60.5136H61.3381V38.0932V39.5772H62.5599H62.7808L63.1741 39.5904L63.3629 39.5987L63.696 39.6308L63.8559 39.6498L64.1379 39.705L64.2722 39.7355L64.5097 39.8155L64.6226 39.8583L64.8222 39.9663L64.9178 40.0241L65.0868 40.1626L65.1684 40.2359L65.3152 40.4082L65.5163 40.7075L65.5691 40.7966L65.6416 40.9425L65.6738 41.0142L65.7117 41.1643L65.7274 41.245L65.7422 41.452L65.7447 41.5097L65.7472 41.6457L65.7488 41.8856V41.9747L65.7472 42.1255L65.7463 42.1981L65.7422 42.3193L65.7364 42.4355L65.7117 42.6078L65.6952 42.6878L65.6408 42.8296L65.5147 43.0671L65.4429 43.1882L65.2401 43.4232L64.8963 43.7085L64.8098 43.7637L64.6507 43.8552L64.5715 43.8989L64.4141 43.969L64.3341 44.0028L64.1601 44.0547L64.0694 44.0786L63.8617 44.1157L63.7512 44.1322L63.4923 44.1561L63.3547 44.1669L63.0257 44.18L62.9383 44.1825L62.7479 44.1866L62.6489 44.1883L62.4354 44.1916L62.3249 44.1924L62.085 44.1932L61.6942 44.1941H59.6892V40.4017ZM63.5871 42.7628L63.6951 42.7175L63.8617 42.612L63.9375 42.5559L64.0463 42.424L64.0933 42.3531L64.1502 42.1841L64.1824 41.8782V41.7925L64.1725 41.6606L64.1651 41.5996L64.1337 41.5006L64.1148 41.452L64.0521 41.3613L63.9128 41.2071L63.644 40.9375L62.4906 40.9103L61.3381 40.8839V41.879V42.875H62.3299H62.4931L62.7775 42.8675L62.9119 42.8634L63.1378 42.8461L63.2434 42.837L63.4091 42.8115L63.4841 42.7975M67.1916 40.4017V36.6092H67.9748H68.758V40.4017V44.1941H67.9748H67.1916V40.4017ZM70.9015 40.4008V36.6068L73.684 36.629L76.4665 36.6505V37.31V37.9696L74.4672 37.9918L72.468 38.0141V38.7956V39.5772H74.323H76.1779V40.2368V40.8963H74.323H72.468V41.8856V42.875H74.5703H76.6726V43.5345V44.1941H73.7871H70.9015V40.4008ZM89.946 40.4049V36.6092H90.6872H91.4275L91.4498 39.1823L91.4712 41.7554L92.947 39.1823L94.4219 36.6092H95.276H96.1293V40.4017V44.1941H95.3469H94.5653L94.5431 41.5938L94.5217 38.9943L93.0335 41.5732L91.5454 44.1528L90.7457 44.1767L89.946 44.1998V40.4049ZM107.836 41.1024V38.0108H106.723H105.61V37.31V36.6092H108.705H111.8L111.776 37.2894L111.752 37.9696L110.619 37.9926L109.485 38.0157V41.1049V44.1941H108.661H107.836V41.1024ZM113.195 40.4017V36.6092H115.998H118.801V37.31V38.0108H116.781H114.762V38.794V39.5772H116.617H118.472V40.2368V40.8963H116.617H114.762V41.8856V42.875H116.864H118.966V43.5345V44.1941H116.081H113.195V40.4017ZM120.698 40.4017V36.6092H121.85H121.991L122.224 36.6101H122.332L122.507 36.6125L122.588 36.6142L122.713 36.62L122.77 36.6233L122.855 36.634L122.893 36.6397L122.947 36.6562L122.97 36.6653L123 36.6892L123.046 36.7947L123.049 36.8071L123.067 36.8879L123.078 36.9357L123.112 37.0816L123.13 37.1616L123.177 37.3644L123.202 37.4724L123.26 37.7247L123.29 37.8566L123.358 38.1509L123.393 38.3018L123.468 38.6299L123.507 38.7973L123.589 39.151L123.715 39.7009L123.758 39.888L123.841 40.2475L123.882 40.4247L123.96 40.7586L123.998 40.9219L124.068 41.2228L124.102 41.3679L124.163 41.6284L124.192 41.7521L124.242 41.964L124.266 42.0629L124.303 42.2187L124.32 42.2888L124.343 42.382L124.36 42.4413L124.362 42.4438L124.37 42.4339L124.374 42.4248L124.389 42.3754L124.398 42.3432L124.426 42.2319L124.435 42.1989L124.454 42.1181L124.464 42.0744L124.489 41.9697L124.502 41.9145L124.533 41.7851L124.548 41.7158L124.586 41.5575L124.605 41.4742L124.648 41.2838L124.671 41.1849L124.722 40.9606L124.75 40.8444L124.809 40.583L124.839 40.4478L124.909 40.1469L124.944 39.9911L125.022 39.6481L125.151 39.0826L125.22 38.7825L125.348 38.2227L125.379 38.0883L125.436 37.8385L125.464 37.7173L125.516 37.4972L125.54 37.3916L125.583 37.2086L125.604 37.122L125.637 36.9819L125.652 36.9176L125.674 36.8269L125.694 36.7535L125.703 36.7214L125.753 36.6768L125.769 36.667L125.819 36.6513L125.846 36.6439L125.921 36.6332L125.962 36.6282L126.07 36.6208L126.128 36.6175L126.274 36.6134L126.352 36.6117L126.544 36.6101L126.887 36.6092H128.035V40.4017V44.1941H127.293H126.551L126.544 41.1643V40.9433L126.542 40.5303L126.54 40.3291L126.537 39.9606L126.535 39.7817L126.53 39.4626L126.526 39.3093L126.521 39.0446L126.517 38.9193L126.509 38.7149L126.506 38.6209L126.497 38.4824L126.492 38.4222L126.483 38.3546L126.469 38.3406L126.464 38.3546L126.441 38.4395L126.428 38.4906L126.391 38.6431L126.37 38.7272L126.319 38.9399L126.293 39.0521L126.231 39.3159L126.199 39.4527L126.127 39.7594L126.091 39.9169L126.013 40.2574L125.972 40.4313L125.888 40.799L125.758 41.3704L125.118 44.1941L124.33 44.1932H123.542L122.882 41.1634L122.223 38.1345L122.201 41.1643L122.18 44.1941H121.439H120.698V40.4017ZM129.983 44.0687L129.981 44.063L129.977 44.0333L129.975 44.0152L129.972 43.9624L129.967 43.9039L129.961 43.7225L129.958 43.6219L129.953 43.3671L129.949 43.2319L129.945 42.9162L129.943 42.7521L129.939 42.3885L129.938 42.2014L129.935 41.8015L129.934 41.3951L129.932 40.5286V40.0941L129.935 39.2474L129.936 39.0413L129.939 38.6514L129.941 38.4609L129.945 38.1097L129.947 37.9407L129.952 37.6414L129.954 37.5005L129.961 37.2663L129.963 37.1583L129.971 37.0017L129.972 36.9679L129.977 36.9168L129.982 36.8665L130.034 36.6092H130.807H131.58V38.0866V39.5632L133.002 39.5921L133.172 39.5954L133.455 39.6011L133.588 39.6044L133.807 39.6127L133.909 39.6168L134.076 39.6267L134.155 39.6325L134.283 39.6473L134.343 39.6555L134.444 39.677L134.493 39.6885L134.58 39.7174L134.848 39.8427L134.949 39.8954L135.133 40.0142L135.221 40.0752L135.379 40.2096L135.455 40.2788L135.587 40.4289L135.65 40.5055L135.757 40.6721L135.808 40.757L135.89 40.9392L135.928 41.0323L135.985 41.2302L136.01 41.3316L136.041 41.546L136.06 41.8856V42.006L136.041 42.2327L136.029 42.3432L135.984 42.5518L135.959 42.6532L135.888 42.8436L135.85 42.936L135.753 43.1091L135.701 43.1932L135.579 43.349L135.513 43.4249L135.364 43.5642L135.286 43.631L135.109 43.7546L134.814 43.9212L134.342 44.1528L132.189 44.1784L132.067 44.18L131.846 44.1825L131.738 44.1833L131.54 44.185L131.444 44.1858L131.27 44.1875H131.186L131.034 44.1883H130.888L130.653 44.1858L130.545 44.1842L130.377 44.1776L130.301 44.1743L130.191 44.1627L130.141 44.157L130.075 44.1405L130.047 44.1314L130.012 44.1091L129.997 44.0976M133.927 42.7579L133.987 42.7323L134.095 42.6623L134.147 42.6235L134.234 42.5312L134.275 42.4825L134.342 42.3721L134.372 42.3152L134.416 42.1907L134.435 42.128L134.455 41.9953L134.462 41.9285L134.457 41.7925L134.452 41.724L134.419 41.5872L134.34 41.3885L134.314 41.3366L134.256 41.2484L134.226 41.2071L134.156 41.137L134.119 41.1049L134.03 41.0513L133.982 41.0266L133.868 40.9878L133.807 40.9697L133.66 40.9433L133.582 40.9309L133.395 40.9153L133.297 40.9079L133.064 40.9004L132.656 40.8963H131.58V41.8856V42.875H132.613H132.79L133.09 42.8675L133.231 42.8634L133.463 42.8461L133.571 42.837L133.74 42.8098L133.817 42.795M137.434 40.4017V36.6092H138.217H139V40.4017V44.1941H138.217H137.434V40.4017Z" fill="white"/>
<line x1="156.354" y1="13.6464" x2="175.354" y2="32.6464" stroke="white" stroke-opacity="0.4"/>
<line x1="155.646" y1="32.6464" x2="174.646" y2="13.6464" stroke="white" stroke-opacity="0.4"/>
<path d="M271.504 12.5189C270.286 12.5189 269.46 12.6204 269.025 12.8233C268.619 12.9973 268.416 13.4177 268.416 14.0846C268.416 14.3456 268.488 14.563 268.633 14.737C268.807 14.882 269.039 14.9689 269.329 14.9979L274.505 15.6938C276.187 15.9258 277.361 16.4767 278.028 17.3465C278.724 18.1874 279.072 19.5356 279.072 21.3913C279.072 24.1748 278.448 26.2044 277.201 27.4802C275.955 28.727 273.78 29.3504 270.678 29.3504C268.967 29.3504 267.416 29.2779 266.024 29.1329C264.661 29.0169 263.501 28.843 262.544 28.611V22.957C263.269 23.131 264.27 23.2905 265.545 23.4354C266.85 23.5514 268.169 23.6094 269.503 23.6094C270.692 23.6094 271.489 23.4934 271.895 23.2615C272.33 23.0005 272.548 22.5221 272.548 21.8262C272.548 21.5943 272.475 21.4058 272.33 21.2608C272.185 21.0869 271.997 20.9854 271.765 20.9564L266.415 20.2605C264.85 20.0575 263.704 19.4921 262.979 18.5643C262.284 17.6075 261.936 16.2012 261.936 14.3456C261.936 11.91 262.704 10.0833 264.241 8.86553C265.777 7.61875 268.054 6.99536 271.069 6.99536C272.258 6.99536 273.36 7.02436 274.374 7.08234C275.389 7.14034 276.462 7.25632 277.593 7.43028V12.8668C276.868 12.7508 275.969 12.6639 274.896 12.6059C273.823 12.5479 272.693 12.5189 271.504 12.5189Z" fill="white"/>
<path d="M269.222 13.2829L269.229 13.2798L269.236 13.2764C269.384 13.2077 269.638 13.1396 270.032 13.0913C270.418 13.0439 270.907 13.0189 271.504 13.0189C272.685 13.0189 273.806 13.0477 274.869 13.1051C275.932 13.1626 276.812 13.2483 277.514 13.3605L278.093 13.4532V12.8668V7.43028V7.00132L277.669 6.9361C276.524 6.76 275.435 6.64216 274.403 6.58316C273.377 6.52455 272.266 6.49536 271.069 6.49536C267.997 6.49536 265.59 7.1283 263.928 8.47544C262.244 9.81074 261.436 11.7991 261.436 14.3456C261.436 16.251 261.791 17.7799 262.575 18.8584L262.58 18.8653L262.585 18.8721C263.416 19.9349 264.701 20.5424 266.351 20.7563C266.351 20.7563 266.351 20.7563 266.351 20.7564L271.7 21.4522L271.703 21.4525C271.813 21.4663 271.885 21.5078 271.946 21.5809L271.961 21.5983L271.977 21.6144C272.015 21.653 272.048 21.7079 272.048 21.8262C272.048 22.4155 271.871 22.6906 271.643 22.8299C271.519 22.8994 271.291 22.9738 270.921 23.0276C270.554 23.0809 270.084 23.1094 269.503 23.1094C268.186 23.1094 266.884 23.0522 265.596 22.9379C264.331 22.7941 263.356 22.6376 262.661 22.4708L262.044 22.3228V22.957V28.611V29.0043L262.427 29.0969C263.415 29.3364 264.6 29.5134 265.977 29.6307C267.388 29.7775 268.955 29.8504 270.678 29.8504C273.82 29.8504 276.165 29.2242 277.555 27.8338L277.555 27.8338L277.559 27.8297C278.937 26.4198 279.572 24.2345 279.572 21.3913C279.572 19.4983 279.221 18.0098 278.419 17.0349C277.637 16.0202 276.311 15.4383 274.573 15.1985L274.571 15.1983L269.396 14.5024L269.387 14.5013L269.379 14.5004C269.192 14.4817 269.071 14.4346 268.991 14.3807C268.946 14.313 268.916 14.2214 268.916 14.0846C268.916 13.501 269.087 13.3405 269.222 13.2829Z" stroke="white" stroke-opacity="0.2"/>
<path d="M245.311 28.9152L235.873 1.64551H243.397L247.442 15.1281C247.703 16.027 248.022 17.2302 248.399 18.738C248.776 20.2167 249.138 21.6954 249.486 23.1742C250.124 20.5357 250.574 18.68 250.835 17.6072C251.124 16.5344 251.342 15.7225 251.487 15.1716L255.488 1.64551H262.795L253.401 28.9152H245.311Z" fill="white"/>
<path d="M244.838 29.0787L244.955 29.4152H245.311H253.401H253.757L253.873 29.078L263.268 1.80836L263.496 1.14551H262.795H255.488H255.115L255.009 1.50367L251.007 15.0298L251.005 15.037L251.003 15.0444C250.859 15.5936 250.642 16.4042 250.352 17.4767L250.352 17.4767L250.349 17.489C250.16 18.264 249.873 19.4472 249.488 21.0384C249.291 20.2308 249.09 19.4231 248.884 18.6154C248.506 17.1056 248.186 15.8959 247.922 14.9887L247.922 14.9887L247.921 14.9844L243.876 1.50183L243.769 1.14551H243.397H235.873H235.171L235.401 1.80904L244.838 29.0787Z" stroke="white" stroke-opacity="0.2"/>
<path d="M235.911 22.5656V27.7412C235.215 28.1761 234.041 28.553 232.388 28.872C230.736 29.1909 228.996 29.3504 227.169 29.3504C223.69 29.3504 221.182 28.4805 219.645 26.7409C218.108 24.9722 217.34 22.1162 217.34 18.1729C217.34 14.3166 218.152 11.4896 219.776 9.69188C221.399 7.8942 223.965 6.99536 227.474 6.99536C230.895 6.99536 233.302 7.67674 234.693 9.0395C236.114 10.3733 236.825 12.7508 236.825 16.1722C236.825 17.1001 236.81 17.8394 236.781 18.3903C236.752 18.9412 236.694 19.5791 236.607 20.304H223.907C223.936 21.4928 224.255 22.3191 224.864 22.7831C225.473 23.247 226.589 23.4789 228.213 23.4789C229.605 23.4789 231.026 23.3919 232.475 23.218C233.925 23.015 235.07 22.7976 235.911 22.5656ZM227.474 12.5624C226.082 12.5624 225.14 12.8088 224.647 13.3017C224.154 13.7657 223.907 14.6935 223.907 16.0852H230.91V15.1284C230.881 14.1136 230.634 13.4322 230.17 13.0843C229.735 12.7363 228.836 12.5624 227.474 12.5624Z" fill="white"/>
<path d="M236.411 22.5656V21.909L235.778 22.0836C234.969 22.307 233.849 22.5206 232.411 22.7221C230.982 22.8934 229.582 22.9789 228.213 22.9789C226.599 22.9789 225.634 22.7408 225.167 22.3853L224.918 22.7123L225.167 22.3853C224.804 22.1088 224.536 21.6149 224.442 20.804H236.607H237.051L237.104 20.3636C237.191 19.6309 237.251 18.9815 237.28 18.4166C237.31 17.8531 237.325 17.1038 237.325 16.1722C237.325 12.7129 236.612 10.158 235.039 8.67854C233.504 7.17846 230.932 6.49536 227.474 6.49536C223.888 6.49536 221.159 7.41422 219.405 9.35674C217.661 11.2874 216.84 14.2624 216.84 18.1729C216.84 22.1607 217.613 25.1647 219.268 27.0688L219.268 27.0688L219.27 27.0719C220.941 28.9633 223.619 29.8504 227.169 29.8504C229.025 29.8504 230.797 29.6884 232.483 29.3629C234.146 29.042 235.398 28.6517 236.176 28.1652L236.411 28.0183V27.7412V22.5656ZM224.989 13.6658L224.995 13.6606L225 13.6553C225.341 13.3143 226.1 13.0624 227.474 13.0624C228.137 13.0624 228.668 13.105 229.075 13.1837C229.49 13.2641 229.732 13.3739 229.858 13.4747L229.864 13.4796L229.87 13.4843C230.145 13.6902 230.381 14.1682 230.41 15.1357V15.5852H224.42C224.442 15.1436 224.496 14.7747 224.575 14.4739C224.684 14.0643 224.834 13.8125 224.989 13.6658Z" stroke="white" stroke-opacity="0.2"/>
<path d="M215.43 22.6088V28.9152H195.12V22.6088L206.993 7.73443H196.381V1.64551H214.604V7.73443L202.774 22.6088H215.43Z" fill="white"/>
<path d="M215.93 22.6088V22.1088H215.43H203.811L214.995 8.04566L215.104 7.90901V7.73443V1.64551V1.14551H214.604H196.381H195.881V1.64551V7.73443V8.23443H196.381H205.954L194.729 22.2969L194.62 22.4337V22.6088V28.9152V29.4152H195.12H215.43H215.93V28.9152V22.6088Z" stroke="white" stroke-opacity="0.2"/>
<path d="M278.51 31.5898V45.2247H278.053V32.1335L272.725 42.3977H272.181L266.854 32.1118V45.2247H266.397V31.5898H267.071L272.464 41.8975L277.835 31.5898H278.51Z" fill="white"/>
<path d="M279.01 31.5898V31.0898H278.51H277.835H277.532L277.392 31.3588L272.463 40.8173L267.514 31.358L267.374 31.0898H267.071H266.397H265.897V31.5898V45.2247V45.7247H266.397H266.854H267.354V45.2247V34.1642L271.737 42.6276L271.877 42.8977H272.181H272.423L272.465 42.9778L272.507 42.8977H272.725H273.029L273.169 42.628L277.553 34.1821V45.2247V45.7247H278.053H278.51H279.01V45.2247V31.5898Z" stroke="white" stroke-opacity="0.2"/>
<path d="M262.014 40.0491V31.5898H262.471V40.0491C262.471 41.9048 262.057 43.253 261.231 44.0939C260.405 44.9347 259.093 45.3551 257.295 45.3551C255.57 45.3551 254.301 44.9347 253.489 44.0939C252.692 43.2385 252.293 41.8903 252.293 40.0491V31.5898H252.75V40.0491C252.75 41.8033 253.105 43.0573 253.816 43.8112C254.526 44.5505 255.686 44.9202 257.295 44.9202C258.962 44.9202 260.165 44.5433 260.905 43.7894C261.644 43.0356 262.014 41.7888 262.014 40.0491Z" fill="white"/>
<path d="M262.014 31.0898H261.514V31.5898V40.0491C261.514 41.7382 261.152 42.8238 260.548 43.4393C259.945 44.0543 258.903 44.4202 257.295 44.4202C255.748 44.4202 254.752 44.063 254.178 43.4665C253.599 42.8513 253.25 41.7565 253.25 40.0491V31.5898V31.0898H252.75H252.293H251.793V31.5898V40.0491C251.793 41.9471 252.202 43.4461 253.124 44.4348L253.124 44.4349L253.13 44.4412C254.073 45.4179 255.499 45.8551 257.295 45.8551C259.158 45.8551 260.628 45.421 261.588 44.4443C262.547 43.4685 262.971 41.9631 262.971 40.0491V31.5898V31.0898H262.471H262.014Z" stroke="white" stroke-opacity="0.2"/>
<path d="M248.357 31.5898V45.2247H247.9V31.5898H248.357Z" fill="white"/>
<path d="M248.857 31.5898V31.0898H248.357H247.9H247.4V31.5898V45.2247V45.7247H247.9H248.357H248.857V45.2247V31.5898Z" stroke="white" stroke-opacity="0.2"/>
<path d="M243.852 31.5898V45.2247H243.395V32.1335L238.067 42.3977H237.524L232.196 32.1118V45.2247H231.739V31.5898H232.413L237.806 41.8975L243.178 31.5898H243.852Z" fill="white"/>
<path d="M244.352 31.5898V31.0898H243.852H243.178H242.874L242.734 31.3588L237.805 40.8173L232.856 31.358L232.716 31.0898H232.413H231.739H231.239V31.5898V45.2247V45.7247H231.739H232.196H232.696V45.2247V34.1642L237.08 42.6276L237.219 42.8977H237.524H237.765L237.807 42.9778L237.849 42.8977H238.067H238.371L238.511 42.628L242.895 34.1821V45.2247V45.7247H243.395H243.852H244.352V45.2247V31.5898Z" stroke="white" stroke-opacity="0.2"/>
<path d="M228.78 44.7897V45.2247H220.038V31.5898H228.584V32.0248H220.494V37.9832H227.779V38.4181H220.494V44.7897H228.78Z" fill="white"/>
<path d="M229.28 44.7897V44.2897H228.78H220.994V38.9181H227.779H228.279V38.4181V37.9832V37.4832H227.779H220.994V32.5248H228.584H229.084V32.0248V31.5898V31.0898H228.584H220.038H219.538V31.5898V45.2247V45.7247H220.038H228.78H229.28V45.2247V44.7897Z" stroke="white" stroke-opacity="0.2"/>
<path d="M207.88 39.8316V45.2247H207.423V31.5898H211.751C213.52 31.5898 214.795 31.9015 215.578 32.5249C216.376 33.1483 216.774 34.1559 216.774 35.5476C216.774 36.7799 216.477 37.744 215.883 38.4399C215.288 39.1358 214.389 39.5707 213.186 39.7446L217.035 45.2247H216.491L212.686 39.7881C212.497 39.8026 212.331 39.8171 212.186 39.8316C212.055 39.8316 211.932 39.8316 211.816 39.8316H207.88ZM216.318 35.5476C216.318 34.3009 215.962 33.402 215.252 32.8511C214.542 32.3002 213.375 32.0248 211.751 32.0248H207.88V39.4185H211.751C213.317 39.4185 214.469 39.1068 215.208 38.4834C215.948 37.8455 216.318 36.8669 216.318 35.5476Z" fill="white"/>
<path d="M208.38 45.2247V40.3316H211.816H211.817H211.817H211.818H211.819H211.819H211.82H211.821H211.822H211.822H211.823H211.824H211.824H211.825H211.826H211.826H211.827H211.828H211.828H211.829H211.83H211.83H211.831H211.832H211.832H211.833H211.834H211.834H211.835H211.836H211.837H211.837H211.838H211.839H211.839H211.84H211.841H211.841H211.842H211.843H211.843H211.844H211.845H211.845H211.846H211.847H211.847H211.848H211.849H211.85H211.85H211.851H211.852H211.852H211.853H211.854H211.854H211.855H211.856H211.856H211.857H211.858H211.859H211.859H211.86H211.861H211.861H211.862H211.863H211.863H211.864H211.865H211.865H211.866H211.867H211.867H211.868H211.869H211.87H211.87H211.871H211.872H211.872H211.873H211.874H211.874H211.875H211.876H211.877H211.877H211.878H211.879H211.879H211.88H211.881H211.881H211.882H211.883H211.883H211.884H211.885H211.886H211.886H211.887H211.888H211.888H211.889H211.89H211.89H211.891H211.892H211.893H211.893H211.894H211.895H211.895H211.896H211.897H211.897H211.898H211.899H211.9H211.9H211.901H211.902H211.902H211.903H211.904H211.904H211.905H211.906H211.907H211.907H211.908H211.909H211.909H211.91H211.911H211.911H211.912H211.913H211.914H211.914H211.915H211.916H211.916H211.917H211.918H211.918H211.919H211.92H211.921H211.921H211.922H211.923H211.923H211.924H211.925H211.926H211.926H211.927H211.928H211.928H211.929H211.93H211.93H211.931H211.932H211.933H211.933H211.934H211.935H211.935H211.936H211.937H211.938H211.938H211.939H211.94H211.94H211.941H211.942H211.942H211.943H211.944H211.945H211.945H211.946H211.947H211.947H211.948H211.949H211.95H211.95H211.951H211.952H211.952H211.953H211.954H211.955H211.955H211.956H211.957H211.957H211.958H211.959H211.96H211.96H211.961H211.962H211.962H211.963H211.964H211.965H211.965H211.966H211.967H211.967H211.968H211.969H211.97H211.97H211.971H211.972H211.972H211.973H211.974H211.975H211.975H211.976H211.977H211.977H211.978H211.979H211.98H211.98H211.981H211.982H211.982H211.983H211.984H211.985H211.985H211.986H211.987H211.988H211.988H211.989H211.99H211.99H211.991H211.992H211.993H211.993H211.994H211.995H211.995H211.996H211.997H211.998H211.998H211.999H212H212.001H212.001H212.002H212.003H212.003H212.004H212.005H212.006H212.006H212.007H212.008H212.008H212.009H212.01H212.011H212.011H212.012H212.013H212.014H212.014H212.015H212.016H212.016H212.017H212.018H212.019H212.019H212.02H212.021H212.022H212.022H212.023H212.024H212.024H212.025H212.026H212.027H212.027H212.028H212.029H212.03H212.03H212.031H212.032H212.033H212.033H212.034H212.035H212.035H212.036H212.037H212.038H212.038H212.039H212.04H212.041H212.041H212.042H212.043H212.043H212.044H212.045H212.046H212.046H212.047H212.048H212.049H212.049H212.05H212.051H212.052H212.052H212.053H212.054H212.054H212.055H212.056H212.057H212.057H212.058H212.059H212.06H212.06H212.061H212.062H212.063H212.063H212.064H212.065H212.066H212.066H212.067H212.068H212.068H212.069H212.07H212.071H212.071H212.072H212.073H212.074H212.074H212.075H212.076H212.077H212.077H212.078H212.079H212.08H212.08H212.081H212.082H212.083H212.083H212.084H212.085H212.086H212.086H212.087H212.088H212.089H212.089H212.09H212.091H212.091H212.092H212.093H212.094H212.094H212.095H212.096H212.097H212.097H212.098H212.099H212.1H212.1H212.101H212.102H212.103H212.103H212.104H212.105H212.106H212.106H212.107H212.108H212.109H212.109H212.11H212.111H212.112H212.112H212.113H212.114H212.115H212.115H212.116H212.117H212.118H212.118H212.119H212.12H212.121H212.121H212.122H212.123H212.124H212.124H212.125H212.126H212.127H212.127H212.128H212.129H212.13H212.13H212.131H212.132H212.133H212.133H212.134H212.135H212.136H212.136H212.137H212.138H212.139H212.139H212.14H212.141H212.142H212.142H212.143H212.144H212.145H212.145H212.146H212.147H212.148H212.148H212.149H212.15H212.151H212.152H212.152H212.153H212.154H212.155H212.155H212.156H212.157H212.158H212.158H212.159H212.16H212.161H212.161H212.162H212.163H212.164H212.164H212.165H212.166H212.167H212.167H212.168H212.169H212.17H212.17H212.171H212.172H212.173H212.174H212.174H212.175H212.176H212.177H212.177H212.178H212.179H212.18H212.18H212.181H212.182H212.183H212.183H212.184H212.185H212.186H212.211L212.235 40.3291C212.299 40.3228 212.368 40.3164 212.441 40.3099L216.082 45.5114L216.231 45.7247H216.491H217.035H217.997L217.444 44.9373L214.035 40.083C214.959 39.8386 215.714 39.4076 216.263 38.7646C216.958 37.951 217.274 36.8575 217.274 35.5476C217.274 34.0644 216.847 32.8829 215.888 32.1324C214.971 31.403 213.554 31.0898 211.751 31.0898H207.423H206.923V31.5898V45.2247V45.7247H207.423H207.88H208.38V45.2247ZM208.38 32.5248H211.751C213.342 32.5248 214.37 32.7995 214.946 33.2462C215.491 33.6693 215.818 34.3919 215.818 35.5476C215.818 36.7738 215.477 37.5901 214.884 38.1029C214.276 38.6145 213.265 38.9185 211.751 38.9185H208.38V32.5248Z" stroke="white" stroke-opacity="0.2"/>
<path d="M195.457 40.2663V45.2244H195V31.5896H199.327C201.096 31.5896 202.372 31.923 203.155 32.5899C203.952 33.2423 204.351 34.3006 204.351 35.7649C204.351 37.2871 203.945 38.4179 203.133 39.1573C202.321 39.8966 201.074 40.2663 199.393 40.2663H195.457ZM203.894 35.7649C203.894 34.4456 203.532 33.496 202.807 32.9161C202.096 32.3217 200.937 32.0245 199.327 32.0245H195.457V39.8531H199.327C200.893 39.8531 202.046 39.5197 202.785 38.8528C203.524 38.1859 203.894 37.1566 203.894 35.7649Z" fill="white"/>
<path d="M195.957 45.2244V40.7663H199.393C201.135 40.7663 202.527 40.3851 203.47 39.5269C204.421 38.6606 204.851 37.3716 204.851 35.7649C204.851 34.2186 204.429 32.9886 203.475 32.2061C202.556 31.4257 201.135 31.0896 199.327 31.0896H195H194.5V31.5896V45.2244V45.7244H195H195.457H195.957V45.2244ZM195.957 32.5245H199.327C200.898 32.5245 201.911 32.8188 202.486 33.2996L202.486 33.2997L202.495 33.3065C203.057 33.7564 203.394 34.5305 203.394 35.7649C203.394 37.0732 203.048 37.9424 202.45 38.4815C201.843 39.0293 200.837 39.3531 199.327 39.3531H195.957V32.5245Z" stroke="white" stroke-opacity="0.2"/>
</svg>
