<svg width="129" height="41" viewBox="0 0 129 41" fill="none" xmlns="http://www.w3.org/2000/svg">
<path d="M109.719 28.2285L109.215 28.2025L108.237 28.1237L107.752 28.08L106.814 27.9668L106.35 27.9056L105.453 27.7579L105.008 27.6799L104.15 27.4985L103.727 27.4029L102.91 27.1871L102.508 27.0747L101.732 26.8245L101.35 26.6952L100.616 26.4105L99.5641 25.9461L99.3843 25.8596L99.0546 25.6936L98.8939 25.6117L98.597 25.4495L98.4524 25.3684L98.1823 25.207L98.0499 25.1259L97.8013 24.9606L97.5564 24.7938L97.1043 24.4312L96.9925 24.3371L96.7714 24.1358L96.4371 23.8129L96.2978 23.6737L96.0446 23.3967L95.9214 23.2582L95.6995 22.9797L95.5916 22.8405L95.398 22.5581L95.3047 22.4158L95.1386 22.1258L95.0583 21.9789L94.9168 21.6767L94.8487 21.5237L94.7308 21.2062L94.6742 21.0447L94.5763 20.7081L94.4516 20.1771L94.4309 20.0761L94.3995 19.8274L94.3858 19.6966L94.3666 19.4028L94.359 19.2513L94.3521 18.9291L94.3498 18.7662L94.3552 18.4333L94.359 18.2681L94.3751 17.9429L94.3842 17.783L94.411 17.4831L94.4256 17.3385L94.463 17.0814L94.5304 16.7638L94.5709 16.6177L94.6689 16.3285L94.7201 16.1846L94.8387 15.9008L94.8999 15.7592L95.0384 15.4807L95.1103 15.3422L95.268 15.0699L95.4309 14.7982L95.8135 14.2764L96.014 14.0193L96.4684 13.5281L96.7041 13.2871L97.2259 12.8303L97.4952 12.6069L98.0813 12.1892L98.382 11.9856L99.0278 11.6115L100.059 11.1027L100.402 10.952L101.104 10.6773L101.459 10.5442L102.192 10.3047L102.561 10.1884L103.326 9.98178L103.714 9.88232L104.518 9.70863L104.925 9.62524L105.772 9.48292L106.202 9.41559L107.097 9.30388L107.551 9.25109L108.499 9.16922L109.987 9.07741L110.57 9.05139L111.725 9.03686H112.3L113.436 9.07435L114 9.0996L115.109 9.18835L115.659 9.23885L116.734 9.37657L117.266 9.45232L118.3 9.63901L118.811 9.73847L119.796 9.9726L120.281 10.0958L121.211 10.3766L122.535 10.8494L122.78 10.9474L123.249 11.1494L123.479 11.2519L123.919 11.4646L124.135 11.5717L124.546 11.7936L124.747 11.9061L125.13 12.1379L125.317 12.2557L125.67 12.4975L125.843 12.6199L126.168 12.8717L126.327 12.9994L126.622 13.2611L127.034 13.6659L127.192 13.8327L127.477 14.1708L127.614 14.3407L127.858 14.6858L127.975 14.8602L128.18 15.2168L128.278 15.3973L128.445 15.7684L128.523 15.9566L128.654 16.3469L128.715 16.545L128.811 16.9574L128.855 17.1663L128.917 17.604L128.975 18.2941L128.988 18.5634L128.981 19.0761L128.972 19.3285L128.918 19.8098L128.886 20.0478L128.785 20.503L128.728 20.7287L128.578 21.1633L128.497 21.3783L128.295 21.7968L128.187 22.0042L127.932 22.4112L127.798 22.6132L127.487 23.0134L126.959 23.6109L126.77 23.8076L126.376 24.1779L126.175 24.3592L125.753 24.7012L125.538 24.8688L125.085 25.1833L124.855 25.3371L124.369 25.6263L124.122 25.7678L123.601 26.0333L123.335 26.1626L122.774 26.4059L122.489 26.5245L121.887 26.7472L120.935 27.0594L120.745 27.1167L120.35 27.2262L120.151 27.2797L119.738 27.3815L119.321 27.4817L118.441 27.6577L117.994 27.7419L117.064 27.8857L116.594 27.9538L115.629 28.064L115.142 28.1145L114.155 28.1895L113.66 28.2224L112.665 28.2598L112.168 28.2744L111.179 28.2736L110.688 28.269M113.124 23.4572L113.385 23.4281L113.873 23.3516L114.11 23.3103L114.552 23.207L114.768 23.1526L115.168 23.0218L115.363 22.9529L115.725 22.793L115.901 22.7089L116.228 22.5176L116.387 22.4181L116.682 22.1947L116.826 22.0784L117.093 21.8206L117.466 21.3929L117.544 21.2934L117.684 21.0906L117.75 20.9889L117.869 20.7815L117.926 20.6775L118.024 20.4632L118.071 20.3553L118.149 20.1327L118.186 20.0202L118.245 19.7876L118.272 19.6698L118.312 19.4257L118.33 19.3018L118.352 19.0432L118.365 18.6384V18.4731L118.346 18.1571L118.333 18.0018L118.287 17.7042L118.261 17.558L118.188 17.278L118.149 17.1403L118.049 16.8763L117.996 16.7462L117.869 16.4976L117.802 16.3744L117.646 16.1395L117.564 16.024L117.381 15.8013L117.072 15.4815L116.921 15.3384L116.595 15.0821L116.428 14.9589L116.069 14.7401L115.884 14.6353L115.489 14.4539L115.286 14.3675L114.852 14.2221L114.63 14.154L114.155 14.0438L113.913 13.9933L113.395 13.9184L113.131 13.8847L112.567 13.8441L111.67 13.8196H111.474L111.098 13.8281L110.913 13.8342L110.558 13.8533L110.383 13.864L110.048 13.8946L109.883 13.9115L109.566 13.9535L109.411 13.9757L109.113 14.0301L108.966 14.0584L108.687 14.1242L108.549 14.1586L108.287 14.2366L108.157 14.2772L107.911 14.3675L107.668 14.4616L107.231 14.6881L107.019 14.8074L106.638 15.0875L106.454 15.2344L106.124 15.5703L105.682 16.1387L105.612 16.2436L105.49 16.4448L105.431 16.5443L105.33 16.7409L105.234 16.9368L105.101 17.3331L105.071 17.4341L105.026 17.6437L105.006 17.7493L104.977 17.9727L104.964 18.086L104.95 18.327L104.943 18.7149V18.8075L104.946 18.9705L104.948 19.0485L104.953 19.1862L104.96 19.3186L104.984 19.5351L104.999 19.6392L105.045 19.8328L105.146 20.1503L105.212 20.3347L105.356 20.6599L105.432 20.8167L105.608 21.1044L105.701 21.2452L105.923 21.5153L106.322 21.9246L106.427 22.0226L106.662 22.2085L106.783 22.2995L107.048 22.4694L107.183 22.5528L107.475 22.7058L107.623 22.78L107.938 22.9154L108.098 22.9805L108.433 23.0953L108.603 23.1511L108.955 23.2452L109.134 23.2904L109.501 23.363L110.063 23.4457L110.17 23.4579L110.407 23.4778L110.528 23.487L110.787 23.5008L111.05 23.5138L111.607 23.5222L111.886 23.523L112.421 23.5077L112.551 23.5023L112.793 23.487L112.911 23.4786M3.89448 27.6707L3.64964 27.6676L3.20587 27.663L2.99087 27.66L2.60372 27.6554L2.41626 27.6523L2.0819 27.6477L1.92046 27.6447L1.63431 27.6386L1.49735 27.6355L1.25633 27.6286L1.14157 27.6248L0.941868 27.6164L0.846993 27.6118L0.684787 27.6011L0.608274 27.5957L0.478968 27.5827L0.418523 27.5758L0.319822 27.5598L0.273149 27.5513L0.200463 27.5322L0.166032 27.5223L0.114769 27.4993L0.091815 27.4878L0.0581493 27.4603L0.0283095 27.4327L0.00688613 27.3616L0 27.2308V27.2177L0.00612114 27.168L0.0107117 27.1389L0.024484 27.0601L0.0321351 27.0173L0.0527935 26.914L0.0642705 26.8589L0.0910497 26.7342L0.118594 26.6056L0.188986 26.3004L0.30911 25.8053L0.446068 25.2575L0.744466 24.1496L0.897491 23.5949L1.22649 22.4763L1.39482 21.9162L1.7529 20.7922L1.935 20.2306L2.31833 19.1067L2.51267 18.5458L2.91972 17.4272L3.12553 16.8702L3.554 15.7631L3.76977 15.2122L4.2166 14.1219L4.44231 13.5794L4.90445 12.5121L5.13781 11.9811L5.61448 10.9413L5.85397 10.4248L6.34212 9.41865L6.58772 8.91979L7.08429 7.95191L7.33372 7.47294L7.83717 6.54944L8.08966 6.09342L8.59694 5.21888L8.85096 4.78888L9.36053 3.9702L9.61532 3.56775L10.1234 2.80951L10.8831 1.74675L10.9558 1.64958L11.1058 1.46289L11.1808 1.37184L11.3215 1.21269L11.3896 1.13848L11.5052 1.02447L11.532 0.999989L11.5779 0.961732L11.6322 0.924241L11.6559 0.912764L11.7309 0.892106L11.7753 0.882159L11.9069 0.866092L11.9444 0.862266L12.0331 0.85538L12.0806 0.85232L12.19 0.846198L12.2481 0.843138L12.3812 0.838547L12.4509 0.835487L12.61 0.831661L12.6934 0.829366L12.8809 0.826305L12.978 0.82401L13.1961 0.821714L13.3093 0.820184L13.5611 0.817889L13.6911 0.817124L13.9788 0.814829L14.1273 0.814063L14.4532 0.813298L14.6208 0.812533L14.9873 0.811768H15.1762L15.5856 0.811003H16.2512H16.4471H16.8182L17.0003 0.811768L17.3438 0.812533H17.5114L17.8282 0.814063H17.9827L18.2727 0.815593L18.4143 0.816359L18.6782 0.818654L18.8075 0.819419L19.0462 0.82248L19.1625 0.823245L19.3775 0.826305L19.4816 0.827836L19.6721 0.831661L19.7647 0.833191L19.9315 0.837017L20.0126 0.839313L20.1572 0.843138L20.2268 0.845433L20.3493 0.850789L20.4074 0.853085L20.5092 0.858441L20.5566 0.861501L20.6369 0.866857L20.6752 0.869917L20.7349 0.876803L20.8428 0.898227L20.8565 0.904348L20.8948 0.934953L20.9162 0.953316L20.9705 1.00611L20.9988 1.03518L21.0669 1.11017L21.1029 1.14919L21.1832 1.24253L21.2666 1.34047L21.464 1.58684L21.5673 1.71615L21.7976 2.01531L21.9155 2.16986L22.1657 2.50652L22.2927 2.67867L22.552 3.03905L23.3133 4.13929L23.5 4.41933L23.8704 4.99547L24.0555 5.28545L24.4205 5.88072L24.7839 6.47981L25.4932 7.72773L25.8436 8.35896L26.5215 9.6612L26.8559 10.3169L27.4963 11.6574L27.8107 12.3315L28.4068 13.6972L28.6983 14.3813L29.2431 15.7577L29.5086 16.4456L29.9952 17.8182L30.654 19.858L30.7626 20.2176L30.983 20.9782L31.0931 21.363L31.3112 22.1457L31.4191 22.5367L31.6249 23.3072L31.7251 23.6882L31.9111 24.4113L31.9554 24.588L32.0396 24.9254L32.0809 25.0915L32.1567 25.4059L32.1934 25.559L32.2599 25.8451L32.2921 25.9844L32.3487 26.2384L32.3755 26.36L32.4199 26.5773L32.4413 26.6806L32.4734 26.8566L32.488 26.9392L32.5063 27.0693L32.5178 27.2093V27.2529L32.5063 27.3264L32.4979 27.3608L32.4673 27.4213L32.4489 27.4503L32.3938 27.5031L32.2814 27.5835L32.2531 27.6011L32.1888 27.6294L32.1521 27.6424L32.0465 27.663L32.0159 27.6684L31.9409 27.6761L31.9011 27.6806L31.8039 27.6868L31.7527 27.6906L31.6287 27.6952L31.5637 27.6975L31.4099 27.7013L31.3288 27.7028L31.1398 27.7059L31.0403 27.7067L30.8123 27.7074L30.693 27.7082H30.4214L30.2798 27.7074L29.9607 27.7067L29.7947 27.7059L29.4229 27.7036L29.2308 27.7028L28.8031 27.6998L28.582 27.6975L28.0938 27.6937L27.2889 27.6875L26.9615 27.6845L26.331 27.6776L26.0204 27.6745L25.432 27.6661L25.1443 27.6623L24.6125 27.6531L24.3547 27.6493L23.8925 27.6393L23.7816 27.637L23.5758 27.6324L23.4756 27.6294L23.2919 27.6248L23.2024 27.6225L23.0425 27.6171L22.9652 27.6148L22.8306 27.6095L22.7663 27.6072L22.6576 27.6026L22.6071 27.6003L22.5283 27.5949L22.4924 27.5927L22.4434 27.5881L22.4051 27.5812L22.386 27.5712L22.347 27.5322L22.3271 27.51L22.2881 27.445L22.2682 27.4098L22.2276 27.3172L22.207 27.2682L22.1657 27.1466L22.1442 27.0823L22.1006 26.9301L22.0784 26.8497L22.0318 26.6653L22.008 26.5689L21.9591 26.3509L21.881 25.9836L21.8581 25.8734L21.8007 25.6026L21.7709 25.4618L21.7035 25.158L21.6699 25.005L21.6025 24.7051L21.5084 24.3003L21.3003 23.4204L16.2826 23.4005L11.2657 23.3814L11.216 23.5536L11.2121 23.5658L11.1961 23.6255L11.1869 23.6614L11.1609 23.7647L11.1463 23.8221L11.1104 23.9637L11.092 24.0387L11.0484 24.2131L11.0254 24.3034L10.9749 24.5046L10.9497 24.6079L10.8938 24.8313L10.7156 25.5544L10.6743 25.7227L10.5985 26.0211L10.5625 26.1642L10.4967 26.4159L10.4646 26.536L10.4072 26.7434L10.3797 26.8421L10.3299 27.0089L10.3055 27.0877L10.2619 27.217L10.2412 27.2767L10.2029 27.3723L10.1846 27.4159L10.1501 27.4794L10.1035 27.5437L10.0798 27.5674L10.0216 27.6072L9.98717 27.6256L9.87393 27.6539L9.84027 27.66L9.75534 27.6715L9.70867 27.6768L9.59466 27.686L9.53345 27.6898L9.38502 27.6967L9.30544 27.6998L9.11722 27.7044L9.01699 27.7067L8.78286 27.709L8.65968 27.7097L8.37429 27.7105L8.22509 27.7112L7.88308 27.7097L7.7048 27.709L7.30082 27.7067L7.09041 27.7051L6.61909 27.7005L6.37425 27.6982L5.82948 27.6929L5.54792 27.6898L4.92434 27.6829L4.76367 27.6806L4.42548 27.6768L4.25409 27.6753M19.1281 16.9169V16.9138L19.122 16.8909L19.1174 16.8771L19.1036 16.8335L19.0876 16.7853L19.0355 16.6368L19.0072 16.555L18.9361 16.3545L18.8136 16.0179L18.78 15.9253L18.6989 15.7172L18.656 15.61L18.5573 15.3744L18.5061 15.2535L18.3944 14.9964L18.3362 14.8663L18.2138 14.5932L18.0883 14.3177L17.8175 13.7454L17.6805 13.4593L17.4043 12.9007L17.3362 12.7645L17.2023 12.5013L17.1365 12.3728L17.0095 12.1295L16.9475 12.0109L16.8297 11.7928L16.7731 11.688L16.6682 11.5013L16.6177 11.4126L16.5282 11.2634L16.4854 11.1937L16.4142 11.0874L16.3813 11.04L16.3316 10.9818L16.2841 10.9566L16.2742 10.9634L16.2329 11.0208L16.2092 11.0568L16.1441 11.1685L16.1097 11.2305L16.024 11.3888L15.9796 11.4738L15.8763 11.6735L15.8235 11.7775L15.7057 12.0117L15.646 12.1326L15.5167 12.3942L15.3859 12.662L15.1028 13.255L14.959 13.5564L14.6697 14.1785L14.5267 14.4876L14.255 15.0867L14.1892 15.2328L14.0653 15.5121L14.0056 15.6483L13.8947 15.9046L13.8411 16.0286L13.7462 16.255L13.6253 16.5534L13.4685 16.9551H16.2979H16.493L16.8664 16.9544L17.0508 16.9536L17.3974 16.9521L17.5665 16.9513L17.8779 16.9482L18.0279 16.9475L18.2972 16.9437L18.425 16.9421L18.643 16.9383L18.7448 16.936L18.9047 16.9314L18.9766 16.9291L19.0707 16.9245L19.1082 16.9215M39.052 27.6707L38.8676 27.6684L38.5225 27.6646L38.3549 27.6623L38.0435 27.6585L37.8913 27.6562L37.6105 27.6516L37.4743 27.65L37.2233 27.6454L37.1017 27.6432L36.8782 27.6386L36.7704 27.6363L36.5745 27.6317L36.4788 27.6294L36.3075 27.624L36.2248 27.6217L36.0772 27.6164L36.006 27.6133L35.8805 27.608L35.8201 27.6049L35.7145 27.598L35.6135 27.5919L35.4673 27.5774L35.4023 27.5697L35.3174 27.5529L35.2455 27.5238L35.2386 27.5177L35.2248 27.4955L35.2187 27.4817L35.2064 27.4396L35.2011 27.4151L35.1911 27.3455L35.1858 27.3065L35.1766 27.2009L35.1728 27.1435L35.1651 26.9959L35.1613 26.9163L35.1544 26.7189L35.1514 26.6125L35.146 26.3577L35.1429 26.2223L35.1391 25.9025L35.1368 25.7342L35.133 25.3417L35.1322 25.2391L35.1307 25.018L35.1299 24.9055L35.1284 24.6638L35.1276 24.5406L35.1269 24.2781L35.1261 24.1435L35.1253 23.8581L35.1246 23.7127L35.1238 23.4036L35.123 23.2467L35.1223 22.9132V22.7441L35.1215 22.3852V22.2031L35.1207 21.8183V21.6224L35.12 21.2108V21.0019V20.5619V20.3385L35.1192 19.8695V19.6315V19.1327V18.8794V18.35V17.5198V7.62061H31.4428H27.7671L27.5674 7.42091L27.367 7.22045L27.4152 4.15536L27.4175 3.9901L27.4228 3.68558L27.4251 3.53714L27.4297 3.26399L27.432 3.13163L27.4366 2.88908L27.4389 2.77202L27.4443 2.55778L27.4465 2.45449L27.4511 2.26703L27.4534 2.17675L27.4588 2.01378L27.4619 1.93574L27.4672 1.79648L27.4695 1.72915L27.4756 1.61056L27.4817 1.49732L27.4948 1.3267L27.5024 1.24942L27.5185 1.13924L27.5277 1.09104L27.5475 1.02753L27.5827 0.969383L27.5866 0.966323L27.608 0.959437L27.621 0.956376L27.6661 0.950255L27.6922 0.947195L27.7656 0.941074L27.8054 0.938014L27.911 0.932657L27.9684 0.930362L28.1107 0.925006L28.1872 0.922711L28.3716 0.91812L28.4688 0.915825L28.6983 0.911234L28.8192 0.908939L29.0992 0.904348L29.2461 0.902817L29.5805 0.898992L29.7557 0.896697L30.149 0.893636L30.354 0.891341L30.8116 0.88828L31.0488 0.88675L31.5744 0.883689L31.846 0.882159L32.4443 0.879099L32.7527 0.877569L33.4275 0.875273L33.6012 0.874508L33.9639 0.873743L34.1483 0.872978L34.5316 0.871448H34.7259L35.1307 0.869917L35.3357 0.869152L35.7627 0.868387L35.9785 0.867622L36.4283 0.866857H36.6556L37.1277 0.865327H37.3664L37.8622 0.864561L38.1132 0.863797L38.6327 0.863031L38.8959 0.862266L39.4406 0.861501H39.7153L40.2853 0.860736L40.573 0.859971L41.1691 0.859205H41.4697L42.0918 0.858441H42.4055L43.0543 0.857675H43.3826L44.0582 0.85691L44.4002 0.856145H45.1041L45.4591 0.85538H46.1921L46.5624 0.854615H47.3237H47.7086L48.4997 0.85385H48.8991L49.7209 0.853085H50.1356H50.9879L51.4179 0.85232H52.3016H52.7477L53.6635 0.851554H54.1249H55.0729H55.5511L56.532 0.850789H57.027H58.0416H58.5535H59.6017L60.1304 0.850024H61.2138H61.7601H62.8787H63.4426H64.5964H65.1787L66.3692 0.849259H66.9691H68.1963H68.8153H70.0801H70.7174H72.0204H72.6769H74.0182H74.6938H76.0748H78.1904H78.9647H80.4773H81.2279H82.6939H83.4215H84.8416H85.5463H86.9212H87.6037H88.9342H89.5946H90.8823H91.5204H92.7645H93.3819L94.5839 0.850024H95.18H96.3407H96.916H98.0362H98.5909H99.6712H100.206L101.247 0.850789H101.763H102.765H103.262H104.226L104.704 0.851554H105.632H106.091H106.982L107.423 0.85232H108.279H108.702L109.523 0.853085H109.929L110.716 0.85385H111.104L111.858 0.854615H112.231L112.951 0.85538H113.307L113.996 0.856145H114.336L114.994 0.85691H115.318L115.945 0.857675H116.255L116.852 0.858441L117.147 0.859205L117.714 0.859971H117.995L118.535 0.860736L118.802 0.861501L119.314 0.862266L119.566 0.863031L120.052 0.863797L120.291 0.864561L120.75 0.865327L120.976 0.866092L121.41 0.866857L121.624 0.867622L122.034 0.868387L122.235 0.869152L122.62 0.869917L122.809 0.870682L123.171 0.872213L123.35 0.872978L123.689 0.874508L123.856 0.875273L124.174 0.876038L124.33 0.876803L124.627 0.878333L124.773 0.879099L125.05 0.880629L125.321 0.882925L125.806 0.885985L126.04 0.887515L126.454 0.891341L126.652 0.893636L127 0.897462L127.167 0.899757L127.454 0.904348L127.591 0.906643L127.825 0.911999L127.936 0.914294L128.121 0.91965L128.208 0.922711L128.351 0.928832L128.419 0.931127L128.525 0.938014L128.574 0.941074L128.65 0.94796L128.684 0.951021L128.735 0.958672L128.757 0.961732L128.788 0.970149L128.839 0.994633L128.858 1.013L128.891 1.05049L128.907 1.07115L128.931 1.13235L128.943 1.16832L128.959 1.27773L128.963 1.3091L128.97 1.38485L128.973 1.42463L128.979 1.52027L128.982 1.57154L128.985 1.69013L128.988 1.75287L128.991 1.89824L128.992 1.97399L128.995 2.14844L128.995 2.23949L128.997 2.44531L128.998 2.55243L128.998 2.79421L128.999 2.91892V3.19819L129 3.3428V3.66339V4.19285V7.24493L128.813 7.43316L128.624 7.62061H87.0368H45.4484V17.5175V27.4136L45.2877 27.5598L45.264 27.5812L45.2013 27.6164L45.1645 27.6332L45.0436 27.6592L45.0077 27.6646L44.9182 27.6753L44.87 27.6799L44.7514 27.6883L44.6879 27.6914L44.5348 27.6975L44.4537 27.7005L44.2609 27.7044L44.1592 27.7067L43.9212 27.709L43.7965 27.7097L43.5088 27.7105H43.3581L43.0153 27.709L42.8363 27.7082L42.4323 27.7059L42.2219 27.7044L41.7521 27.6998L41.5088 27.6975L40.9678 27.6921L40.6878 27.6891L40.0703 27.6822L39.9112 27.6806L39.5768 27.6768L39.407 27.6745M48.7583 27.6898L48.7063 27.6791L48.6214 27.66L48.5816 27.6454L48.5196 27.5735L48.5051 27.549L48.4798 27.4809L48.4683 27.4427L48.4477 27.3409L48.4377 27.2851L48.4209 27.142L48.4133 27.0647L48.4002 26.8734L48.3941 26.7717L48.3849 26.5245L48.3804 26.3929L48.3735 26.0831L48.3696 25.9201L48.3651 25.5391L48.3628 25.3394L48.3597 24.8811V24.7617L48.3582 24.5061V24.3753L48.3574 24.0976L48.3566 23.956V23.6561V23.5031L48.3559 23.1787V23.0134V22.6645V22.487V22.1121V21.9216V21.5199V20.8871V20.6928V20.3209V20.1373V19.7884V19.6162V19.2895V19.1281L48.3566 18.822V18.5206L48.3574 17.9789V17.7172L48.3589 17.2505L48.3597 17.0255L48.3612 16.6277L48.362 16.4364L48.3651 16.102L48.3666 15.9421L48.3696 15.6651L48.3712 15.5328L48.3758 15.3071L48.3781 15.2007L48.3842 15.0209L48.3872 14.936L48.3934 14.7959L48.3972 14.7309L48.4056 14.6253L48.4102 14.5764L48.4194 14.4991L48.4301 14.4279L48.4553 14.3461L48.502 14.2665L48.6482 14.0859H53.5587H58.4693L58.6154 14.2665L58.633 14.2887L58.6621 14.3461L58.6759 14.3805L58.6981 14.4991L58.7027 14.535L58.7118 14.6261L58.7164 14.6751L58.7241 14.7975L58.7271 14.8633L58.7333 15.0224L58.7363 15.1074L58.7417 15.3101L58.744 15.4172L58.7478 15.669L58.7493 15.8013L58.7524 16.1074L58.7539 16.2673L58.7562 16.6345L58.757 16.8258L58.7585 17.2589L58.7593 17.4846L58.76 17.9896L58.7608 18.252V18.8358L58.7616 18.9865V19.3048V19.4663V19.8052V19.9781V20.3393V20.9078V27.3677L58.5741 27.5559L58.3859 27.7434L53.6582 27.7327L53.333 27.7319L52.7048 27.7304L52.395 27.7288L51.8081 27.7266L51.5212 27.725L50.9894 27.7212L50.7316 27.7197L50.2679 27.7158L50.157 27.7151L49.9504 27.7128L49.8494 27.712L49.6642 27.7097L49.5747 27.709L49.4125 27.7067L49.3345 27.7051L49.1983 27.7028L49.1325 27.7021L49.0223 27.6998L48.971 27.6982L48.8892 27.6967L48.8517 27.6952L48.8004 27.6929L48.7782 27.6921M61.8986 27.6447L61.7073 27.5475L61.6866 18.5213L61.6851 17.9008L61.6828 16.7049V16.4104L61.682 15.8373L61.6813 15.5534V15.0041V14.7317V14.2083V13.9497V13.4554V13.2121L61.682 12.7508V12.5243L61.6828 12.0981L61.6836 11.89L61.6843 11.5029L61.6851 11.3146L61.6866 10.9696L61.6874 10.8028L61.6889 10.5028L61.6897 10.3582L61.6912 10.1065L61.692 9.98714L61.6943 9.78668L61.6951 9.69333L61.6973 9.54796L61.6989 9.48216L61.7012 9.39417L61.705 9.33066L61.7111 9.30618L61.7387 9.25798L61.7547 9.23349L61.8006 9.18835L61.9858 9.082L61.9973 9.07817L62.0455 9.07052L62.0738 9.0667L62.1541 9.05981L62.1977 9.05598L62.3072 9.04986L62.3653 9.04604L62.5015 9.04068L62.5734 9.03762L62.7349 9.03226L62.819 9.02921L63.0042 9.02461L63.1939 9.02002L63.6339 9.01161L63.8627 9.00778L64.3669 9.00243L64.6255 8.99936L65.1756 8.9963L65.4556 8.99477L66.0356 8.99248H66.3279H66.9193L67.2154 8.99324L67.8023 8.99554L68.0938 8.99707L68.6584 9.00166L68.9362 9.00396L69.4603 9.01008L69.7166 9.01314L70.1841 9.02155L70.4091 9.02614L70.8023 9.03609L70.8949 9.03915L71.064 9.04451L71.1459 9.04757L71.2897 9.05369L71.3586 9.05675L71.4764 9.06364L71.5315 9.0667L71.621 9.07358L71.6616 9.07741L71.7189 9.08506L71.7687 9.09654L71.96 9.19371L71.9799 11.6207L72.0005 14.0477H76.6662H76.9876H77.6051H77.9088H78.4827H78.7635H79.2807H79.5309H79.9792H80.0856H80.2845H80.3817H80.5584H80.6441H80.7971H80.8714H80.9999H81.0603H81.1621H81.2096H81.283H81.3167H81.3603H81.3901H81.394L81.4024 13.9987L81.4062 13.9666L81.4138 13.8579L81.4177 13.7975L81.4253 13.636L81.4291 13.5496L81.4368 13.3422L81.4399 13.2336L81.4467 12.9864L81.4498 12.8587L81.4552 12.5786L81.4582 12.4348L81.4628 12.1287L81.4674 11.6459L81.4689 11.5136L81.4712 11.2703L81.472 11.1517L81.4743 10.9344L81.4758 10.8288L81.4781 10.6367L81.4796 10.5434L81.4827 10.3743L81.4842 10.2924L81.4873 10.1455L81.4888 10.0744L81.4927 9.94735L81.4965 9.82493L81.5057 9.63365L81.511 9.54643L81.5233 9.41559L81.5301 9.35591L81.5462 9.27251L81.5554 9.23579L81.5761 9.18758L81.6135 9.14015L81.6189 9.13556L81.6579 9.12638L81.6824 9.12178L81.7551 9.1126L81.7956 9.10878L81.9012 9.10036L81.9578 9.09654L82.0925 9.08965L82.1629 9.08582L82.3251 9.07894L82.4093 9.07588L82.5967 9.06899L82.6931 9.0667L82.9028 9.06058L83.0099 9.05828L83.2402 9.05292L83.4751 9.04833L83.9954 9.04068L84.2624 9.03686L84.834 9.0315L85.1247 9.02921L85.7284 9.02614L86.0329 9.02461H86.6511H86.9602L87.5731 9.02614L87.8776 9.02767L88.4675 9.0315L88.7583 9.0338L89.3061 9.04068L89.5739 9.04451L90.0613 9.05369L90.1791 9.05598L90.3987 9.06134L90.5066 9.0644L90.7055 9.06976L90.8019 9.07282L90.9764 9.0797L91.0605 9.08276L91.2097 9.09042L91.2801 9.09348L91.401 9.10189L91.4569 9.10572L91.5464 9.11413L91.5869 9.11796L91.6436 9.12714L91.6887 9.14091L91.7032 9.15316L91.727 9.22125L91.7331 9.2442L91.743 9.30924L91.7484 9.34597L91.7576 9.4439L91.7614 9.49746L91.769 9.63365L91.7729 9.70787L91.7798 9.89073L91.7828 9.98867L91.7882 10.2243L91.7905 10.3498L91.7951 10.6451L91.7973 10.8005L91.8012 11.1631L91.8027 11.3529L91.8058 11.7882L91.8065 11.9022L91.8073 12.1448L91.8081 12.2687L91.8088 12.5319L91.8096 12.6658L91.8103 12.9505L91.8111 13.0958L91.8119 13.4027V13.5595L91.8127 13.89V14.0584L91.8134 14.4126V14.5932L91.8142 14.9727V15.1663V15.571V15.7776L91.8149 16.2099V16.4295V16.8886V17.1219V17.6108V18.376V27.5054L91.6451 27.624L91.626 27.637L91.5617 27.6592L91.5227 27.6699L91.3995 27.6868L91.3635 27.6914L91.2771 27.6982L91.2312 27.7021L91.121 27.7082L91.0628 27.7105L90.9266 27.7158L90.8547 27.7189L90.6895 27.7227L90.603 27.725L90.4048 27.7288L90.3015 27.7304L90.0674 27.7327L89.9465 27.7342L89.6741 27.7365L89.5326 27.7373L89.2189 27.7388L89.0559 27.7396L88.6978 27.7411H88.5119L88.1056 27.7419H87.896L87.4384 27.7426H86.6909L86.4591 27.7419H86.026H85.8148L85.42 27.7411L85.2272 27.7403L84.8691 27.7396L84.6947 27.7388L84.3718 27.7373L84.215 27.7365L83.9258 27.7342L83.785 27.7334L83.5279 27.7304L83.4032 27.7296L83.1767 27.7266L83.0673 27.725L82.8699 27.7212L82.7742 27.7189L82.6044 27.7151L82.5225 27.7128L82.3779 27.7082L82.309 27.7059L82.1889 27.6998L82.1315 27.6975L82.0344 27.6914L81.9884 27.6883L81.9119 27.6814L81.8767 27.6776L81.8194 27.6699L81.7153 27.6447L81.524 27.5475L81.5041 23.207L81.4842 18.8664L76.7604 18.8863L72.0365 18.9062L72.0181 23.1909L72.0166 23.4572L72.0151 23.9415L72.0135 24.1756L72.0112 24.5987L72.0105 24.803L72.0082 25.1695L72.0074 25.3463L72.0043 25.66L72.0036 25.8107L72.0005 26.0769L71.999 26.204L71.9952 26.4266L71.9936 26.5322L71.989 26.7143L71.9867 26.8008L71.9814 26.9484L71.9783 27.0173L71.9722 27.1336L71.9684 27.1879L71.9607 27.2767L71.9561 27.318L71.947 27.3838L71.9424 27.4144L71.9309 27.4618L71.9194 27.5062L71.8903 27.5559L71.8375 27.6095L71.8184 27.6248L71.7641 27.6508L71.7312 27.663L71.6256 27.6829L71.595 27.6875L71.5185 27.6959L71.4772 27.6998L71.3777 27.7067L71.3242 27.7097L71.1979 27.7158L71.1306 27.7181L70.973 27.7227L70.8903 27.725L70.6983 27.7288L70.5973 27.7304L70.367 27.7334L70.2468 27.735L69.9745 27.7373L69.8322 27.738L69.5139 27.7396L69.3486 27.7403L68.9806 27.7411H68.7893L68.3677 27.7419H68.1496L67.6707 27.7426H66.8826L66.6508 27.7419H66.2169H66.005L65.6094 27.7411L65.4159 27.7403L65.0578 27.7396L64.8826 27.7388L64.5597 27.7373L64.4021 27.7365L64.1121 27.7342L63.9713 27.7334L63.7142 27.7304L63.5895 27.7296L63.3623 27.7266L63.2528 27.725L63.0547 27.7212L62.959 27.7189L62.7892 27.7151L62.7065 27.7128L62.5619 27.7082L62.4931 27.7059L62.373 27.6998L62.3156 27.6975L62.2184 27.6914L62.1717 27.6883L62.0952 27.6814L62.06 27.6776L62.0034 27.6699L61.9506 27.6623M48.5089 12.8235L48.4729 12.7875L48.4247 12.6987L48.414 12.672L48.3972 12.5985L48.3895 12.558L48.3788 12.4501L48.3735 12.3912L48.3666 12.2366L48.3635 12.1524L48.3597 11.9405L48.3582 11.8265L48.3566 11.5457V11.4707L48.3559 11.3055V11.0338V10.8464L48.3566 10.5327L48.3574 10.385L48.3597 10.1417L48.3612 10.0277L48.3666 9.84483L48.3696 9.75913L48.3788 9.626L48.3834 9.56403L48.3972 9.46915L48.4041 9.4263L48.4232 9.35974L48.502 9.21666L48.6482 9.03609H53.5587H58.4693L58.6154 9.21666L58.6491 9.25798L58.6942 9.35974L58.7049 9.39034L58.7203 9.46915L58.7279 9.51276L58.7386 9.626L58.7432 9.68721L58.7509 9.84483L58.7539 9.92976L58.7577 10.1417L58.7593 10.2557L58.7608 10.5327L58.7616 11.0338V11.1295V11.3055V11.3904L58.7608 11.5457L58.76 11.6957L58.7577 11.9405L58.7562 12.0553L58.7509 12.2366L58.7478 12.3208L58.7386 12.4501L58.734 12.5098L58.7203 12.5985L58.7126 12.6391L58.6927 12.6987L58.6085 12.8235L58.5902 12.8418L58.545 12.8732L58.5183 12.8877L58.4303 12.9107L58.4043 12.916L58.3369 12.9252L58.3002 12.9298L58.2091 12.9375L58.1602 12.9413L58.0408 12.9482L57.9773 12.9512L57.8258 12.9558L57.7447 12.9589L57.5557 12.9627L57.4555 12.9642L57.2244 12.9673L57.1028 12.9688L56.8243 12.9711L56.6789 12.9719L56.3491 12.9734L56.1777 12.9742L55.7921 12.975L55.5924 12.9757H55.1464L54.9153 12.9765H54.4042H53.5587H53.2588H52.7133H52.4493L51.9711 12.9757H51.74L51.3253 12.975H51.1249L50.7683 12.9734L50.5962 12.9727L50.2932 12.9711L50.1478 12.9704L49.893 12.9673L49.7721 12.9665L49.5617 12.9627L49.4622 12.9604L49.2916 12.9558L49.2113 12.9535L49.0766 12.9482L49.0131 12.9451L48.9083 12.9375L48.8593 12.9336L48.7805 12.9252L48.7446 12.9206L48.6872 12.9107L48.6336 12.9L48.5724 12.8732L48.5456 12.8587L48.5089 12.8235Z" fill="#3F91CB"/>
<path d="M24.7135 40.1507L24.6416 40.1385L24.5245 40.1186L24.4702 40.1094L24.3853 40.0903L24.3463 40.0811L24.2889 40.0574L24.2629 40.0444L24.2277 40.0092L24.2124 39.9901L24.1948 39.938L24.1879 39.909L24.1833 39.834L24.1818 39.7927L24.1856 39.6871L24.194 39.4889L24.2162 38.9365L24.4863 38.9602L24.5903 38.9694L24.7694 38.9549L24.8543 38.9418L24.9981 38.8829L25.0662 38.8485L25.1772 38.7437L25.3088 38.5356L25.3226 38.5042L25.3463 38.4315L25.3578 38.3925L25.3769 38.2923L25.3853 38.2379L25.4006 38.0979L25.4075 38.0214L25.4197 37.8278L25.4251 37.723L25.4343 37.4621L25.4366 37.3917L25.4404 37.2364L25.4419 37.1568L25.4457 36.9801L25.4473 36.889L25.4511 36.6893L25.4526 36.5868L25.4557 36.3626L25.4572 36.2471L25.4595 35.9969L25.4641 35.5891L25.4909 32.9303H27.9332H30.3754V36.4498V39.9694H29.6486H28.9217V37.0619V34.1545H27.927H26.9324V36.1094V36.2463L26.9316 36.5019L26.9309 36.6266L26.9286 36.8584L26.927 36.9717L26.9224 37.1813L26.9201 37.2838L26.914 37.4736L26.9079 37.6587L26.888 37.9747L26.8765 38.1255L26.8459 38.3825L26.8283 38.5042L26.7855 38.7154L26.7618 38.8164L26.7044 38.9939L26.673 39.0803L26.5988 39.2387L26.468 39.469L26.4282 39.531L26.3471 39.6373L26.3057 39.6878L26.2178 39.7743L26.1726 39.8156L26.0754 39.8837L25.9171 39.9679L25.8298 40.0061L25.6256 40.0681L25.52 40.0972L25.3004 40.1362L25.191 40.153L24.9828 40.166L24.8826 40.1691M34.7367 40.1117L34.6165 40.0918L34.3801 40.0306L34.263 39.997L34.035 39.9105L33.9218 39.8638L33.7053 39.7529L33.5981 39.6947L33.3954 39.5624L33.2967 39.4935L33.1115 39.342L33.022 39.264L32.8583 39.0949L32.7795 39.0084L32.6395 38.8248L32.4612 38.5348L32.3801 38.3802L32.2561 38.0788L32.1995 37.9265L32.1207 37.6082L32.0863 37.4437L32.0457 37.0795L32.0381 36.9847L32.0289 36.7804L32.0235 36.4498V36.2609L32.0442 35.9066L32.058 35.7337L32.1069 35.4108L32.1345 35.2532L32.2125 34.9601L32.2546 34.8171L32.3617 34.5531L32.4191 34.4246L32.556 34.1874L32.628 34.0718L32.7955 33.8607L32.8828 33.7581L33.0809 33.5714L33.4138 33.3182L33.5653 33.218L33.8843 33.0611L34.0465 32.9899L34.3931 32.8897L34.5706 32.8469L34.9524 32.801L35.5722 32.7933L35.6517 32.7971L35.791 32.8055L35.8583 32.8101L35.9762 32.8209L36.0909 32.8323L36.2814 32.8683L36.3733 32.8889L36.5546 32.9502L36.8645 33.0818L36.9746 33.1323L37.1789 33.247L37.2792 33.3059L37.4651 33.4383L37.5554 33.5064L37.7222 33.6564L37.8033 33.7344L37.9517 33.9027L38.0236 33.99L38.1537 34.1774L38.2172 34.2738L38.3289 34.4812L38.3832 34.5868L38.4781 34.8132L38.6005 35.1767L38.6204 35.244L38.6533 35.4123L38.6686 35.5003L38.6931 35.7008L38.7153 35.9066L38.7321 36.3687L38.736 36.6006L38.7153 37.0459L38.7077 37.1522L38.6855 37.3466L38.6411 37.5991L38.5998 37.775L38.4873 38.1025L38.4261 38.2624L38.2754 38.5578L38.195 38.7008L38.0076 38.961L37.9089 39.0865L37.6862 39.3106L37.5699 39.4178L37.3144 39.6037L37.182 39.6917L36.8943 39.8378L36.7466 39.9051L36.4299 40.01L35.9226 40.1186L35.8469 40.1301L35.7206 40.1477L35.6617 40.1553L35.5615 40.1676L35.4666 40.1783L35.3166 40.1836L35.2424 40.1829L35.0779 40.1645L35.0328 40.1592L34.9272 40.1423L34.8713 40.1339M36.1667 38.7115L36.2906 38.6542L36.5041 38.5042L36.6051 38.4239L36.7757 38.2234L36.8568 38.1163L36.9892 37.8607L37.1491 37.4085L37.1713 37.3259L37.2057 37.1453L37.221 37.0528L37.2409 36.8584L37.2577 36.661L37.2501 36.2517L37.2394 36.0489L37.1797 35.6641L37.1613 35.5722L37.1162 35.4009L37.0336 35.1698L36.9945 35.078L36.9012 34.9112L36.8522 34.8301L36.742 34.6847L36.6854 34.6151L36.5607 34.4911L36.4972 34.4322L36.3602 34.3312L36.2906 34.283L36.1445 34.2034L36.0703 34.1667L35.9165 34.1093L35.8392 34.0833L35.6808 34.0481L35.6012 34.0336L35.4406 34.0213L35.3595 34.0175L35.1988 34.0275L35.1185 34.0351L34.9601 34.068L34.8813 34.0864L34.7275 34.1422L34.651 34.1721L34.5041 34.2501L34.4321 34.2922L34.2944 34.3932L34.2271 34.446L34.1024 34.5699L34.0412 34.635L33.9302 34.7819L33.7818 35.029L33.7298 35.1308L33.6571 35.2968L33.6249 35.3787L33.5844 35.5462L33.5752 35.5906L33.5614 35.6901L33.5553 35.7421L33.5454 35.8615L33.5415 35.9242L33.5339 36.0711L33.5247 36.3297L33.5216 36.4208L33.5186 36.5784L33.517 36.6541V36.7857L33.5186 36.9112L33.5331 37.1078L33.5438 37.2012L33.5813 37.3672L33.6693 37.6358L33.7198 37.7727L33.8506 38.016L33.921 38.1323L34.0863 38.3328L34.1728 38.4277L34.3671 38.5838L34.4673 38.6557L34.6854 38.7636L34.7963 38.8118L35.0328 38.8699L35.1521 38.8929L35.4008 38.899L35.5255 38.8959L35.781 38.8477L35.9096 38.8164M78.3212 40.1148L78.1559 40.0903L77.8453 40.0092L77.6938 39.9625L77.4107 39.8378L77.273 39.7697L77.019 39.6029L76.8958 39.5142L76.6731 39.3068L76.5652 39.1989L76.374 38.9526L76.2829 38.8248L76.1253 38.5417L76.0511 38.3955L75.9287 38.0765L75.7864 37.5593L75.7596 37.4307L75.7213 37.1622L75.7045 37.026L75.6877 36.7482L75.6823 36.609L75.6853 36.3274L75.6899 36.1874L75.7129 35.9089L75.7274 35.7704L75.7703 35.5011L75.7932 35.3672L75.8552 35.1124L75.8881 34.9877L75.9669 34.7536L76.1054 34.433L76.1781 34.2899L76.3724 34.0091L76.4765 33.8714L76.7183 33.615L76.8438 33.4926L77.1138 33.2807L77.5285 33.0351L77.6387 32.9846L77.8124 32.915L77.8973 32.8851L78.0718 32.8492L78.1185 32.8423L78.2233 32.8316L78.2791 32.827L78.4077 32.8216L78.4758 32.8201L78.6364 32.8178L78.9226 32.817L79.0596 32.8178L79.3044 32.8247L79.4222 32.83L79.6342 32.8484L79.7367 32.8599L79.9219 32.8912L80.0121 32.9096L80.1782 32.957L80.2593 32.9823L80.4115 33.0473L80.4873 33.0825L80.6334 33.1667L80.7061 33.2118L80.8522 33.3182L81.0787 33.5041L81.1866 33.5982L81.3955 33.8461L81.4972 33.9754L81.6732 34.2585L81.7543 34.4001L81.8699 34.6702L81.8936 34.7344L81.9249 34.8523L81.9448 35.0083V35.2256L81.1988 35.2218L80.4529 35.2188L80.2616 34.8201L80.2294 34.7536L80.1598 34.635L80.1238 34.5783L80.0458 34.4789L80.006 34.4314L79.9173 34.3511L79.8714 34.3128L79.7711 34.2493L79.7191 34.2203L79.6051 34.1736L79.5462 34.1522L79.4169 34.1208L79.3495 34.107L79.2026 34.0902L78.9609 34.0802H78.8124L78.5416 34.1254L78.41 34.1552L78.1751 34.2585L78.0618 34.3167L77.8644 34.4758L77.7703 34.5615L77.6112 34.7742L77.537 34.8867L77.4184 35.1514L77.364 35.2891L77.2868 35.6028L77.2539 35.7658L77.2194 36.1262L77.2187 36.7184L77.2271 36.8913L77.2699 37.2073L77.2952 37.3596L77.3694 37.6342L77.4107 37.7666L77.5171 38L77.5737 38.1109L77.7099 38.3014L77.7818 38.3917L77.9478 38.5386L78.0351 38.6067L78.2302 38.71L78.3319 38.7559L78.5553 38.8133L78.9226 38.8485H79.0106L79.1774 38.8317L79.2585 38.821L79.413 38.7827L79.4888 38.7613L79.6296 38.7024L79.6977 38.6702L79.8247 38.5914L79.8859 38.5493L79.9968 38.4506L80.0504 38.3994L80.1445 38.2823L80.1904 38.2211L80.2677 38.0857L80.3626 37.863L80.4681 37.5593L81.2164 37.5371L81.9655 37.5149L81.915 37.7666L81.9043 37.8186L81.8706 37.9372L81.8515 37.9977L81.8018 38.1301L81.749 38.2639L81.6112 38.5486L81.5386 38.6894L81.3786 38.9526L81.3389 39.0145L81.2585 39.1262L81.1415 39.2701L81.0971 39.3198L80.9923 39.4155L80.9372 39.4637L80.814 39.5547L80.6862 39.645L80.3909 39.8049L80.2386 39.8799L79.9127 39.9992L79.4199 40.1194L79.3518 40.1308L79.221 40.1492L79.1575 40.1584L79.0465 40.1722L78.9945 40.1783L78.9149 40.1859L78.8461 40.189L78.8354 40.1875L78.7811 40.1806L78.7489 40.176L78.6602 40.1637L78.5653 40.15M93.3835 40.114L93.2243 40.0911L92.8991 39.997L92.7377 39.9426L92.4263 39.7965L92.2748 39.7184L92.0009 39.5318L91.6581 39.2204L91.5778 39.1293L91.4362 38.9472L91.3681 38.8554L91.2511 38.6687L91.1952 38.5746L91.1011 38.3787L91.0567 38.2785L90.9833 38.0688L90.9488 37.9617L90.8953 37.7322L90.8708 37.6144L90.8348 37.3611L90.8195 37.231L90.8004 36.9495L90.7881 36.4881V36.3626L90.7935 36.1331L90.7966 36.0214L90.8103 35.8155L90.8264 35.6136L90.8891 35.2616L90.9259 35.0902L91.0353 34.7704L91.261 34.2868L91.326 34.1659L91.5104 33.9203L91.6099 33.7987L91.8456 33.5676L91.968 33.4551L92.2327 33.2577L92.6398 33.0205L92.74 32.9739L92.9022 32.9096L92.9825 32.8813L93.1532 32.8484L93.1991 32.8415L93.3039 32.8316L93.3582 32.827L93.4867 32.8224L93.5541 32.8201L93.7132 32.8178L93.9956 32.817H94.0927L94.261 32.8193L94.3414 32.8201L94.4822 32.8247L94.5495 32.827L94.6673 32.8346L94.724 32.8392L94.8249 32.8507L94.9229 32.8637L95.092 32.9042L95.3498 32.9938L95.4524 33.0343L95.6505 33.1384L95.7477 33.1935L95.9336 33.322L96.0247 33.3893L96.1953 33.5401L96.2779 33.6173L96.4286 33.7841L96.5021 33.8698L96.6306 34.0504L96.6918 34.1415L96.7944 34.3312L96.8418 34.4268L96.9153 34.6212L96.9872 34.9135L97.0377 35.2256H96.2779H95.5182L95.4172 34.9387L95.3911 34.8653L95.3284 34.7337L95.2947 34.6702L95.2159 34.5577L95.1746 34.5034L95.079 34.4092L95.03 34.3641L94.9183 34.2891L94.8609 34.2532L94.7324 34.1958L94.6658 34.1698L94.5204 34.1307L94.4454 34.1131L94.2825 34.0917L94.0177 34.0795H93.8708L93.6107 34.1185L93.486 34.1445L93.2649 34.2371L93.1585 34.2899L92.9703 34.4391L92.7193 34.7291L92.6681 34.8033L92.577 34.9793L92.5342 35.0711L92.4607 35.2777L92.4263 35.384L92.3712 35.6128L92.3459 35.7291L92.31 35.9716L92.2939 36.0941L92.2786 36.3427L92.2733 36.4674L92.2786 36.7146L92.284 36.837L92.3115 37.0742L92.3788 37.4101L92.411 37.5325L92.489 37.7536L92.5296 37.86L92.6229 38.0489L92.6719 38.1392L92.7828 38.2961L92.841 38.3711L92.9695 38.4973L93.0361 38.5562L93.183 38.6519L93.2587 38.6962L93.424 38.7613L93.5097 38.7904L93.6949 38.8263L93.9956 38.8485H94.0828L94.2496 38.8309L94.3322 38.8202L94.4875 38.7812L94.5633 38.759L94.7056 38.6985L94.7752 38.6656L94.9038 38.5861L94.9657 38.5432L95.0782 38.4438L95.1325 38.3917L95.2289 38.2739L95.2748 38.2127L95.3529 38.0765L95.4478 37.8546L95.5495 37.5593L96.2902 37.5371L97.0316 37.5157L96.9795 37.7666L96.9688 37.8202L96.9344 37.9403L96.9153 38.0023L96.8655 38.1354L96.8127 38.2708L96.6766 38.5547L96.6054 38.6955L96.4478 38.9564L96.4088 39.0176L96.3299 39.1285L96.2144 39.2701L96.17 39.3198L96.0652 39.4155L96.0101 39.4637L95.8869 39.5547L95.7592 39.645L95.4638 39.8049L95.3116 39.8799L94.9856 39.9992L94.4929 40.1194L94.4248 40.1308L94.294 40.1492L94.2304 40.1584L94.1195 40.1722L94.0675 40.1783L93.9879 40.1859L93.919 40.189L93.9083 40.1875L93.8532 40.1806L93.8203 40.176L93.7301 40.163L93.6329 40.15M0 36.4498V32.9188L2.04671 32.944L2.16836 32.9456L2.39101 32.9479L2.4989 32.9494L2.69477 32.9525L2.78964 32.954L2.96256 32.957L3.04596 32.9586L3.19592 32.9616L3.3413 32.9647L3.57466 32.9739L3.68331 32.9785L3.8547 32.9899L3.93427 32.9968L4.06052 33.0137L4.11943 33.0228L4.21584 33.0458L4.47521 33.1445L4.59151 33.1981L4.78279 33.3067L4.87308 33.3618L5.02151 33.4827L5.0919 33.5462L5.20973 33.69L5.36505 33.9441L5.40867 34.0297L5.476 34.2034L5.50584 34.2907L5.54409 34.4651L5.56016 34.5523L5.57087 34.7252L5.57317 34.8109L5.55633 34.98L5.54486 35.0642L5.50048 35.2279L5.47523 35.3083L5.40484 35.4644L5.36582 35.5409L5.26788 35.687L5.0919 35.8921L5.02381 35.9602L4.93123 36.0596L4.89221 36.104L4.85242 36.1652L4.83865 36.192L4.84553 36.2257L4.90139 36.2601L4.91975 36.2662L4.9779 36.3029L5.00927 36.3244L5.08578 36.3879L5.34133 36.6342L5.40637 36.7046L5.51502 36.8576L5.56552 36.9365L5.64662 37.104L5.68335 37.1897L5.7369 37.3688L5.75986 37.4598L5.78434 37.648L5.79352 37.7437L5.7897 37.9372L5.78434 38.0352L5.75144 38.2326L5.73155 38.3313L5.67034 38.5287L5.54486 38.8217L5.489 38.9319L5.36276 39.1224L5.29696 39.2135L5.1447 39.3703L5.06512 39.4461L4.87843 39.5777L4.55249 39.7552L4.46144 39.7973L4.29235 39.8539L4.24568 39.8661L4.1355 39.886L4.07582 39.8952L3.92738 39.9097L3.84628 39.9158L3.64276 39.9266L3.53258 39.9312L3.2579 39.938L3.18368 39.9396L3.01918 39.9426L2.93425 39.9442L2.7468 39.9472L2.64963 39.9487L2.43616 39.9518L2.08496 39.9556L0 39.9801V36.4498ZM3.78507 38.6366L3.85087 38.609L3.96411 38.5294L4.01767 38.4866L4.10566 38.3818L4.14698 38.3267L4.20819 38.202L4.23573 38.1377L4.2694 38.0015L4.28317 37.9326L4.28776 37.7903L4.28623 37.7192L4.26021 37.5792L4.24338 37.5095L4.18523 37.3779L4.06128 37.1974L3.83863 36.9472L2.60754 36.9227L1.37722 36.8982V37.8217V38.7452H2.45069H2.54557L2.71772 38.7437L2.80112 38.7429L2.95185 38.7391L3.09799 38.7345L3.33212 38.7192L3.44 38.7108L3.60527 38.6855L3.68025 38.6718M3.90826 35.3963L3.97559 35.3213L4.06587 35.156L4.1026 35.0718L4.13167 34.9028L4.13856 34.8194L4.10489 34.664L3.98324 34.4651L3.92585 34.4077L3.76747 34.3197L3.72386 34.2998L3.62133 34.2654L3.56701 34.2501L3.4423 34.2233L3.37726 34.2111L3.2273 34.1927L3.14925 34.1835L2.97098 34.1713L2.87763 34.1652L2.66799 34.1591L2.3145 34.1552L1.37722 34.1545V34.9249V35.6954L2.53103 35.6709L3.6856 35.6465L3.90826 35.3963ZM7.42171 36.4552V32.9303H8.18683H8.95196V34.2998V35.6694L10.2718 35.6985L10.4279 35.7023L10.688 35.7084L10.8112 35.7123L11.0132 35.7199L11.1081 35.7237L11.2634 35.7337L11.3361 35.739L11.4554 35.7528L11.5113 35.7605L11.6054 35.7796L11.6506 35.7903L11.7309 35.8163L11.9742 35.9288L12.0706 35.9793L12.2428 36.0887L12.3262 36.1446L12.4723 36.267L12.5419 36.3289L12.6628 36.4644L12.7202 36.534L12.8158 36.6847L12.861 36.762L12.9337 36.9288L12.9666 37.0145L13.0163 37.1997L13.0377 37.2938L13.0645 37.4981L13.0813 37.8271V37.9457L13.0637 38.1668L13.0523 38.2754L13.0102 38.4759L12.9857 38.5746L12.9184 38.7559L12.8816 38.8447L12.7883 39.0076L12.7378 39.0872L12.6177 39.2334L12.5542 39.3045L12.4073 39.4354L12.33 39.4981L12.1548 39.6136L11.8594 39.7712L11.7799 39.808L11.6169 39.8592L11.5717 39.8699L11.4608 39.8883L11.4011 39.8967L11.2519 39.9105L11.1716 39.9166L10.9704 39.9266L10.8617 39.9312L10.5931 39.938L10.5212 39.9396L10.3621 39.9426L10.2802 39.9442L10.0996 39.9472L10.0063 39.9487L9.80278 39.9518L9.46842 39.9556L7.42171 39.9809V36.4552ZM11.1433 38.6205L11.1999 38.5937L11.2994 38.5241L11.346 38.4874L11.4264 38.4009L11.4639 38.3558L11.5243 38.2548L11.5511 38.2035L11.5901 38.0918L11.6069 38.0344L11.6238 37.9158L11.6299 37.8561L11.6238 37.733L11.6177 37.671L11.587 37.5478L11.5136 37.3657L11.4891 37.3175L11.4356 37.2356L11.4072 37.1974L11.3422 37.1323L11.3078 37.1025L11.2259 37.0528L11.1815 37.0298L11.0752 36.9938L11.0186 36.977L10.8824 36.9525L10.8097 36.941L10.6368 36.9265L10.5449 36.9196L10.3292 36.9127L9.95045 36.9089H8.95196V37.8271V38.7452H9.91601H10.0078L10.1708 38.7437L10.2496 38.7429L10.3889 38.7391L10.4562 38.7368L10.574 38.7307L10.6306 38.7276L10.7293 38.7184L10.825 38.7085L10.9704 38.6802L11.0377 38.6633M14.3843 36.4498V32.9303H15.1112H15.8381V36.4498V39.9694H15.1112H14.3843V36.4498ZM17.4181 39.6442L17.4318 39.622L17.477 39.5494L17.503 39.5096L17.5688 39.4047L17.604 39.3489L17.6874 39.2173L17.7302 39.1484L17.8282 38.9939L17.9292 38.834L18.1602 38.4682L18.5283 37.886L18.653 37.6886L18.8802 37.3236L18.9338 37.2364L19.034 37.0742L19.0822 36.9954L19.1679 36.8531L19.2092 36.785L19.2788 36.6671L19.3117 36.612L19.363 36.5225L19.386 36.482L19.4158 36.4261L19.4342 36.3825V36.3779L19.4127 36.3343L19.399 36.3075L19.3523 36.2241L19.3263 36.1782L19.2574 36.0596L19.2199 35.9961L19.1304 35.8462L19.0837 35.7681L18.9774 35.5921L18.9231 35.5018L18.8022 35.3044L18.4012 34.6564L18.2589 34.4284L18.0003 34.0099L17.9383 33.9104L17.8251 33.726L17.77 33.6365L17.6721 33.4758L17.6246 33.3993L17.5451 33.2684L17.5083 33.2065L17.4502 33.1093L17.4234 33.0649L17.3898 33.006L17.3683 32.9647V32.9624L17.3859 32.9578L17.3982 32.9555L17.4372 32.9517L17.4816 32.9471L17.6246 32.9402L17.7035 32.9371L17.9016 32.9333L18.2406 32.9303H19.112L19.7134 34.0389L19.7961 34.1912L19.9499 34.4689L20.0233 34.6013L20.1488 34.8217L20.1779 34.8714L20.2276 34.9571L20.2513 34.9969L20.2903 35.0596L20.3079 35.0879L20.3324 35.1246L20.3523 35.1468H20.3546L20.3722 35.1246L20.3829 35.1093L20.4158 35.0596L20.4334 35.0313L20.4786 34.9571L20.503 34.9173L20.5589 34.8217L20.6178 34.7214L20.7617 34.4697L21.0027 34.0405L21.6148 32.9333L22.4801 32.9318H22.5643L22.7097 32.9326L22.7785 32.9333L22.8964 32.9356L22.9514 32.9371L23.0425 32.9417L23.0853 32.944L23.1527 32.9502L23.1833 32.954L23.2292 32.9632L23.2491 32.9678L23.2751 32.98L23.2873 33.0259L23.2835 33.0328L23.2552 33.0779L23.2376 33.1055L23.1848 33.1896L23.1557 33.2355L23.0807 33.3534L23.041 33.4169L22.9476 33.5638L22.8986 33.6411L22.79 33.8125L22.7334 33.9012L22.6117 34.0933L22.2116 34.7229L22.1534 34.8148L22.0471 34.9823L21.995 35.0642L21.9009 35.2134L21.8558 35.2861L21.7731 35.4169L21.7341 35.4804L21.663 35.596L21.5941 35.7069L21.4885 35.8859L21.4396 35.9686L21.3699 36.0979L21.3386 36.1576L21.2995 36.2486L21.2835 36.2899L21.2697 36.3527L21.2651 36.381L21.2712 36.4254L21.2972 36.4827L21.3225 36.5218L21.3868 36.622L21.4212 36.6755L21.5015 36.8026L21.5436 36.8691L21.6377 37.0176L21.6859 37.0948L21.79 37.2609L21.8963 37.4307L22.1282 37.8026L22.2452 37.9916L22.4824 38.3741L22.5995 38.5631L22.8191 38.9204L22.8719 39.0061L22.9706 39.1668L23.018 39.2448L23.1052 39.3872L23.1465 39.4552L23.2185 39.5731L23.2521 39.6289L23.3057 39.7192L23.3302 39.7605L23.3638 39.8187L23.3883 39.8638L23.3967 39.8852L23.3723 39.9166L23.3615 39.9235L23.3264 39.935L23.3065 39.9403L23.2498 39.9487L23.2185 39.9526L23.1381 39.9587L23.0945 39.961L22.9866 39.9648L22.9293 39.9664L22.7908 39.9686L22.5475 39.9694H21.6653L21.0279 38.8217L20.9407 38.6641L20.7777 38.3764L20.6997 38.2387L20.5665 38.0115L20.5352 37.9594L20.4824 37.8707L20.4571 37.8294L20.4158 37.7643L20.3975 37.7352L20.3707 37.6978L20.3493 37.674H20.347L20.3271 37.6978L20.3156 37.7131L20.2796 37.7643L20.2597 37.7934L20.21 37.8707L20.1832 37.912L20.1205 38.0115L20.0547 38.1155L19.8955 38.3764L19.6277 38.8217L18.9483 39.9694H18.0807H17.213L17.4181 39.6442ZM40.3221 36.4498V32.9303H43.1913H46.0605V36.4498V39.9694H45.2954H44.5303V37.0619V34.1545H43.1913H41.8523V37.0619V39.9694H41.0872H40.3221V36.4498ZM47.8968 36.4498V32.9303H48.6237H49.3505V34.2692V35.6082H50.7278H52.105V34.2692V32.9303H52.8319H53.5587V36.4498V39.9694H52.8319H52.105V38.4009V36.8324H50.7278H49.3505V38.4009V39.9694H48.6237H47.8968V36.4498ZM55.395 36.4498V32.9303H56.1601H56.9253V34.3075V35.6847H58.0592H58.2642L58.6292 35.697L58.8044 35.7046L59.1135 35.7344L59.262 35.752L59.5236 35.8033L59.6483 35.8316L59.8687 35.9058L59.9735 35.9456L60.1587 36.0458L60.2474 36.0994L60.4043 36.2279L60.48 36.296L60.6162 36.456L60.8029 36.7337L60.8519 36.8163L60.9192 36.9518L60.9491 37.0183L60.9843 37.1576L60.9988 37.2326L61.0126 37.4246L61.0149 37.4782L61.0172 37.6044L61.0187 37.8271V37.9097L61.0172 38.0497L61.0164 38.117L61.0126 38.2295L61.0072 38.3374L60.9843 38.4973L60.9689 38.5715L60.9185 38.7031L60.8014 38.9235L60.7348 39.036L60.5466 39.254L60.2275 39.5187L60.1472 39.57L59.9995 39.6549L59.9261 39.6955L59.7799 39.7605L59.7057 39.7919L59.5443 39.8401L59.4601 39.8623L59.2673 39.8967L59.1648 39.912L58.9245 39.9342L58.7968 39.9442L58.4915 39.9564L58.4104 39.9587L58.2336 39.9625L58.1418 39.9641L57.9436 39.9671L57.8411 39.9679L57.6185 39.9686L57.2558 39.9694H55.395V36.4498ZM59.0125 38.6412L59.1128 38.5991L59.2673 38.5011L59.3377 38.4491L59.4387 38.3267L59.4823 38.2609L59.5351 38.104L59.5649 37.8202V37.7406L59.5558 37.6182L59.5489 37.5616L59.5198 37.4697L59.5022 37.4246L59.4441 37.3404L59.3148 37.1974L59.0653 36.9472L57.9949 36.9219L56.9253 36.8974V37.8209V38.7452H57.8457H57.9972L58.2612 38.7383L58.3859 38.7345L58.5955 38.7184L58.6935 38.71L58.8473 38.6863L58.9169 38.6733M62.3577 36.4498V32.9303H63.0845H63.8114V36.4498V39.9694H63.0845H62.3577V36.4498ZM65.8007 36.4491V32.928L68.383 32.9486L70.9653 32.9685V33.5806V34.1927L69.1099 34.2134L67.2544 34.234V34.9594V35.6847H68.976H70.6975V36.2968V36.9089H68.976H67.2544V37.8271V38.7452H69.2055H71.1566V39.3573V39.9694H68.4786H65.8007V36.4491ZM83.4751 36.4529V32.9303H84.1629H84.85L84.8707 35.3182L84.8906 37.7062L86.2601 35.3182L87.629 32.9303H88.4216H89.2135V36.4498V39.9694H88.4874H87.7621L87.7414 37.5562L87.7215 35.1438L86.3405 37.5371L84.9594 39.9312L84.2173 39.9533L83.4751 39.9748V36.4529ZM100.078 37.1002V34.231H99.0454H98.0125V33.5806V32.9303H100.885H103.757L103.735 33.5615L103.713 34.1927L102.661 34.2141L101.609 34.2356V37.1025V39.9694H100.843H100.078V37.1002ZM105.052 36.4498V32.9303H107.653H110.254V33.5806V34.231H108.38H106.505V34.9578V35.6847H108.227H109.948V36.2968V36.9089H108.227H106.505V37.8271V38.7452H108.456H110.407V39.3573V39.9694H107.73H105.052V36.4498ZM112.014 36.4498V32.9303H113.084H113.215L113.43 32.931H113.531L113.694 32.9333L113.769 32.9349L113.885 32.9402L113.938 32.9433L114.017 32.9532L114.052 32.9586L114.101 32.9739L114.123 32.9823L114.151 33.0045L114.193 33.1024L114.196 33.1139L114.213 33.1889L114.224 33.2333L114.255 33.3687L114.272 33.4429L114.316 33.6311L114.339 33.7313L114.392 33.9655L114.421 34.0879L114.483 34.361L114.516 34.5011L114.586 34.8056L114.622 34.9609L114.698 35.2891L114.815 35.7995L114.854 35.9732L114.932 36.3068L114.97 36.4713L115.042 36.7811L115.077 36.9326L115.142 37.2119L115.173 37.3466L115.23 37.5883L115.258 37.7031L115.304 37.8997L115.326 37.9916L115.36 38.1362L115.376 38.2012L115.398 38.2877L115.413 38.3428L115.415 38.3451L115.422 38.3359L115.426 38.3274L115.44 38.2815L115.449 38.2517L115.475 38.1484L115.483 38.1178L115.501 38.0428L115.51 38.0023L115.533 37.9051L115.545 37.8538L115.574 37.7337L115.588 37.6694L115.623 37.5225L115.64 37.4453L115.681 37.2685L115.702 37.1767L115.75 36.9686L115.775 36.8607L115.83 36.6182L115.858 36.4927L115.922 36.2134L115.955 36.0688L116.028 35.7505L116.147 35.2256L116.211 34.9471L116.33 34.4276L116.359 34.3029L116.412 34.0711L116.438 33.9586L116.486 33.7543L116.509 33.6564L116.548 33.4865L116.567 33.4062L116.598 33.2761L116.613 33.2164L116.633 33.1323L116.651 33.0642L116.66 33.0343L116.706 32.993L116.721 32.9838L116.767 32.9693L116.792 32.9624L116.862 32.9525L116.9 32.9479L117.001 32.941L117.054 32.9379L117.19 32.9341L117.262 32.9326L117.44 32.931L117.758 32.9303H118.824V36.4498V39.9694H118.135H117.447L117.441 37.1576V36.9525L117.438 36.5692L117.437 36.3825L117.434 36.0405L117.431 35.8745L117.427 35.5784L117.424 35.436L117.418 35.1904L117.415 35.0741L117.408 34.8844L117.405 34.7972L117.396 34.6686L117.392 34.6128L117.384 34.55L117.37 34.537L117.366 34.55L117.345 34.6288L117.333 34.6763L117.298 34.8178L117.279 34.8959L117.232 35.0933L117.207 35.1973L117.15 35.4422L117.12 35.5692L117.053 35.8538L117.02 35.9999L116.947 36.3159L116.91 36.4774L116.831 36.8186L116.711 37.3489L116.117 39.9694L115.385 39.9686H114.654L114.042 37.1568L113.43 34.3457L113.41 37.1576L113.39 39.9694H112.702H112.014V36.4498ZM120.632 39.8531L120.63 39.8478L120.626 39.8202L120.624 39.8034L120.621 39.7544L120.617 39.7001L120.611 39.5318L120.608 39.4384L120.604 39.202L120.6 39.0765L120.597 38.7835L120.594 38.6312L120.591 38.2938L120.59 38.1201L120.587 37.749L120.586 37.3718L120.584 36.5677V36.1644L120.587 35.3787L120.588 35.1874L120.591 34.8255L120.593 34.6487L120.597 34.3228L120.598 34.1659L120.603 33.8882L120.605 33.7574L120.611 33.5401L120.613 33.4398L120.62 33.2945L120.622 33.2631L120.626 33.2157L120.631 33.169L120.679 32.9303H121.396H122.114V34.3014V35.6717L123.434 35.6985L123.591 35.7015L123.854 35.7069L123.978 35.71L124.18 35.7176L124.275 35.7214L124.431 35.7306L124.503 35.736L124.622 35.7497L124.678 35.7574L124.772 35.7773L124.817 35.788L124.898 35.8148L125.147 35.9311L125.24 35.98L125.411 36.0902L125.493 36.1468L125.64 36.2716L125.71 36.3358L125.832 36.4751L125.891 36.5462L125.991 36.7008L126.037 36.7796L126.114 36.9487L126.149 37.0352L126.202 37.2188L126.225 37.3129L126.254 37.5118L126.272 37.8271V37.9388L126.254 38.1492L126.242 38.2517L126.201 38.4453L126.177 38.5394L126.112 38.7161L126.076 38.8018L125.987 38.9625L125.939 39.0405L125.825 39.1852L125.764 39.2555L125.626 39.3849L125.553 39.4468L125.389 39.5616L125.115 39.7162L124.677 39.9312L122.679 39.9549L122.566 39.9564L122.36 39.9587L122.26 39.9595L122.076 39.961L121.988 39.9618L121.826 39.9633H121.748L121.607 39.9641H121.471L121.253 39.9618L121.153 39.9602L120.998 39.9541L120.927 39.951L120.825 39.9403L120.779 39.935L120.718 39.9197L120.691 39.9113L120.659 39.8906L120.645 39.8799M124.292 38.6366L124.348 38.6128L124.448 38.5478L124.496 38.5118L124.577 38.4262L124.615 38.381L124.677 38.2785L124.705 38.2257L124.746 38.1102L124.764 38.052L124.782 37.9288L124.789 37.8668L124.784 37.7406L124.779 37.6771L124.749 37.5501L124.676 37.3657L124.651 37.3175L124.597 37.2356L124.569 37.1974L124.504 37.1323L124.47 37.1025L124.388 37.0528L124.343 37.0298L124.237 36.9938L124.18 36.977L124.044 36.9525L123.972 36.941L123.799 36.9265L123.707 36.9196L123.491 36.9127L123.112 36.9089H122.114V37.8271V38.7452H123.073H123.236L123.515 38.7383L123.646 38.7345L123.861 38.7184L123.962 38.71L124.118 38.6848L124.19 38.671M127.546 36.4498V32.9303H128.273H129V36.4498V39.9694H128.273H127.546V36.4498Z" fill="#3D3D3D"/>
</svg>
